<?xml version="1.0" encoding="UTF-8" standalone="no"?>
<svg
   xmlns:dc="http://purl.org/dc/elements/1.1/"
   xmlns:cc="http://creativecommons.org/ns#"
   xmlns:rdf="http://www.w3.org/1999/02/22-rdf-syntax-ns#"
   xmlns:svg="http://www.w3.org/2000/svg"
   xmlns="http://www.w3.org/2000/svg"
   xmlns:sodipodi="http://sodipodi.sourceforge.net/DTD/sodipodi-0.dtd"
   xmlns:inkscape="http://www.inkscape.org/namespaces/inkscape"
   viewBox="0 0 128 222"
   width="128"
   height="222"
   id="svg3029"
   version="1.1"
   inkscape:version="0.48.1 "
   sodipodi:docname="Argentina3stars.svg">
  <metadata
     id="metadata3071">
    <rdf:RDF>
      <cc:Work
         rdf:about="">
        <dc:format>image/svg+xml</dc:format>
        <dc:type
           rdf:resource="http://purl.org/dc/dcmitype/StillImage" />
      </cc:Work>
    </rdf:RDF>
  </metadata>
  <defs
     id="defs3069" />
  <sodipodi:namedview
     pagecolor="#ffffff"
     bordercolor="#666666"
     borderopacity="1"
     objecttolerance="10"
     gridtolerance="10"
     guidetolerance="10"
     inkscape:pageopacity="0"
     inkscape:pageshadow="2"
     inkscape:window-width="1280"
     inkscape:window-height="657"
     id="namedview3067"
     showgrid="false"
     inkscape:zoom="1.3732889"
     inkscape:cx="98.10556"
     inkscape:cy="71.096742"
     inkscape:window-x="0"
     inkscape:window-y="0"
     inkscape:window-maximized="1"
     inkscape:current-layer="svg3029" />
  <style
     id="style3031">
		tspan { white-space:pre }
		.shp0 { fill: #d5b048 } 
		.shp1 { fill: #fffffe } 
		.shp2 { fill: #43a1d5 } 
		.shp3 { fill: #173e69 } 
	</style>
  <g
     id="g3107"
     transform="matrix(0.96585763,0,0,0.96585763,2.1850033,1.9047649)">
    <path
       class="shp0"
       d="m 39.75,25.82 c -0.1,0.21 -0.43,1.14 -0.74,2.06 -0.32,0.93 -0.76,2.26 -0.98,2.97 -0.23,0.7 -0.49,1.53 -0.57,1.84 -0.09,0.31 -0.45,1.39 -0.81,2.41 -0.35,1.01 -0.73,1.89 -0.85,1.96 -0.11,0.07 -2.84,0.11 -6.07,0.08 -3.22,-0.02 -5.91,0 -5.96,0.04 -0.06,0.04 0.53,0.55 1.3,1.13 0.78,0.59 1.77,1.31 2.2,1.61 0.44,0.3 0.91,0.63 1.04,0.74 0.14,0.11 0.75,0.56 1.37,1.02 0.62,0.45 1.48,1.06 1.92,1.35 0.44,0.3 1.07,0.78 1.4,1.07 l 0.61,0.53 c -0.47,1.37 -0.99,2.95 -1.45,4.41 -0.47,1.45 -0.91,2.79 -0.98,2.96 -0.08,0.18 -0.39,1.17 -0.7,2.21 -0.31,1.03 -0.56,1.95 -0.56,2.04 0,0.09 0.23,-0.01 0.52,-0.23 0.29,-0.21 0.96,-0.7 1.51,-1.08 0.54,-0.38 1.55,-1.1 2.24,-1.59 0.69,-0.49 1.36,-1 1.49,-1.13 0.13,-0.13 0.71,-0.55 1.28,-0.94 0.57,-0.38 1.42,-1.01 1.88,-1.39 0.46,-0.38 0.95,-0.69 1.08,-0.69 0.13,0 0.55,0.26 0.92,0.58 0.37,0.32 0.82,0.65 1,0.74 0.18,0.09 0.36,0.21 0.4,0.27 0.04,0.05 0.48,0.39 0.96,0.75 0.48,0.36 1.42,1.03 2.08,1.48 0.66,0.45 1.34,0.95 1.52,1.11 0.18,0.17 0.64,0.5 1.04,0.75 0.4,0.25 1.03,0.69 1.4,0.99 0.55,0.44 0.68,0.49 0.68,0.26 0,-0.15 -0.36,-1.4 -0.8,-2.76 C 48.68,52 47.96,49.76 47.52,48.4 47.08,47.03 46.61,45.61 46.48,45.23 l -0.24,-0.68 c 1.3,-0.95 3.16,-2.3 4.96,-3.6 1.8,-1.31 3.67,-2.67 4.15,-3.03 l 0.87,-0.66 c -1.1,-0.06 -3.87,-0.1 -6.85,-0.12 L 43.93,37.1 c -0.3,-0.62 -0.69,-1.74 -1.05,-2.89 -0.36,-1.14 -1.13,-3.52 -1.71,-5.28 -0.58,-1.77 -1.1,-3.27 -1.15,-3.36 -0.06,-0.08 -0.18,0.03 -0.27,0.25 z m 47.08,0.82 c -0.23,0.64 -0.46,1.38 -0.52,1.65 -0.07,0.26 -0.32,1.02 -0.56,1.68 -0.24,0.66 -0.86,2.51 -1.37,4.12 -0.92,2.84 -0.95,2.91 -1.42,3 -0.26,0.05 -3.07,0.09 -6.24,0.1 -5.14,0 -5.73,0.03 -5.44,0.24 0.18,0.13 0.43,0.33 0.56,0.43 0.14,0.11 0.64,0.51 1.12,0.88 0.49,0.37 0.95,0.68 1.04,0.69 0.09,0 0.41,0.22 0.72,0.49 0.31,0.26 0.63,0.53 0.72,0.6 0.09,0.06 0.52,0.36 0.96,0.66 0.44,0.3 0.84,0.59 0.88,0.64 0.04,0.05 0.48,0.38 0.96,0.74 0.48,0.35 1.13,0.8 1.44,0.99 0.31,0.19 0.72,0.49 0.92,0.67 0.32,0.3 0.34,0.4 0.19,0.93 -0.09,0.33 -0.21,0.71 -0.26,0.84 -0.06,0.14 -0.23,0.68 -0.38,1.21 -0.15,0.52 -0.39,1.28 -0.53,1.68 -0.14,0.39 -0.54,1.58 -0.9,2.64 -0.35,1.06 -0.67,2.11 -0.72,2.33 -0.04,0.22 -0.22,0.81 -0.4,1.32 -0.18,0.51 -0.32,0.96 -0.32,1 0,0.04 0.05,0.08 0.12,0.08 0.07,0 0.91,-0.58 1.88,-1.29 0.97,-0.7 2.12,-1.52 2.56,-1.83 0.44,-0.3 1.84,-1.31 3.12,-2.25 1.94,-1.43 2.37,-1.69 2.64,-1.56 0.18,0.09 0.64,0.42 1.04,0.74 0.4,0.32 0.79,0.64 0.88,0.71 0.09,0.07 0.38,0.27 0.64,0.44 0.26,0.17 0.92,0.63 1.45,1.03 0.53,0.4 1.17,0.87 1.42,1.05 0.25,0.17 0.64,0.47 0.87,0.65 0.23,0.18 1.07,0.78 1.86,1.32 0.79,0.55 1.49,1 1.56,0.99 0.07,0 0.09,-0.09 0.05,-0.2 -0.04,-0.11 -0.51,-1.61 -1.05,-3.33 -0.54,-1.71 -1.05,-3.3 -1.14,-3.52 -0.09,-0.22 -0.31,-0.83 -0.49,-1.36 -0.18,-0.53 -0.34,-1.07 -0.36,-1.21 -0.02,-0.13 -0.09,-0.38 -0.15,-0.56 -0.07,-0.17 -0.19,-0.48 -0.27,-0.68 -0.08,-0.2 -0.15,-0.5 -0.15,-0.68 0,-0.21 0.36,-0.57 1.08,-1.07 0.59,-0.41 1.67,-1.19 2.39,-1.72 0.72,-0.54 2.22,-1.62 3.34,-2.42 1.12,-0.79 2.29,-1.64 2.61,-1.89 0.47,-0.36 0.52,-0.44 0.26,-0.45 -0.18,0 -2.91,0 -6.08,0.01 -3.17,0 -5.85,-0.05 -5.95,-0.11 -0.1,-0.07 -0.54,-1.2 -0.98,-2.52 -0.44,-1.33 -1.26,-3.9 -1.83,-5.73 -0.57,-1.83 -1.11,-3.33 -1.2,-3.33 -0.09,0 -0.35,0.52 -0.57,1.16 z"
       id="path3035"
       inkscape:connector-curvature="0"
       style="fill:#d5b048" />
    <path
       class="shp1"
       d="m 29.6,37.14 c 0.4,0.03 0.97,0.03 1.28,0 0.31,-0.04 -0.02,-0.07 -0.72,-0.07 -0.7,0 -0.96,0.03 -0.56,0.07 z m 4.32,0 c 0.4,0.03 0.97,0.03 1.28,0 0.31,-0.04 -0.02,-0.07 -0.72,-0.07 -0.7,0 -0.96,0.03 -0.56,0.07 z m 14.88,0 c 0.4,0.03 0.97,0.03 1.28,0 0.31,-0.04 -0.02,-0.07 -0.72,-0.07 -0.7,0 -0.96,0.03 -0.56,0.07 z m 4.24,0 c 0.35,0.03 0.96,0.03 1.36,0 0.4,-0.04 0.11,-0.06 -0.64,-0.06 -0.75,0 -1.07,0.02 -0.72,0.06 z m 18.96,0 c 0.48,0.03 1.2,0.03 1.6,0 0.4,-0.04 0,-0.06 -0.88,-0.06 -0.88,0 -1.2,0.03 -0.72,0.06 z m 5.36,0 c 0.35,0.03 0.96,0.03 1.36,0 0.4,-0.04 0.11,-0.06 -0.64,-0.06 -0.75,0 -1.07,0.02 -0.72,0.06 z m 19.2,0 c 0.35,0.03 0.96,0.03 1.36,0 0.4,-0.04 0.11,-0.06 -0.64,-0.06 -0.75,0 -1.07,0.02 -0.72,0.06 z"
       id="path3037"
       inkscape:connector-curvature="0"
       style="fill:#fffffe" />
    <path
       class="shp0"
       d="m 20.78,71.74 0.02,4.54 -14.32,0.08 c 0.01,9.44 0.06,12.27 0.13,12.38 0.08,0.15 1.13,0.2 4.39,0.2 l 4.28,0 -0.08,3.21 -8.71,0.08 c -0.01,10.23 0.05,12.42 0.15,12.44 0.09,0.01 2.93,0.03 6.32,0.05 3.39,0.02 6.54,0.05 7,0.06 l 0.84,0.03 c 0,62.26 0.05,73.85 0.18,75.28 0.1,1.12 0.35,2.73 0.56,3.56 0.21,0.84 0.66,2.07 1,2.73 0.34,0.66 0.81,1.49 1.05,1.84 0.23,0.35 0.91,1.18 1.5,1.83 0.59,0.65 1.65,1.62 2.35,2.15 0.7,0.53 1.93,1.27 2.72,1.65 0.87,0.42 2.13,0.85 3.2,1.1 0.97,0.22 2.66,0.48 3.76,0.57 1.1,0.08 4.2,0.22 6.88,0.31 3.48,0.11 5.36,0.24 6.56,0.45 0.92,0.17 2.51,0.57 3.52,0.9 1.04,0.33 2.48,0.95 3.31,1.42 0.82,0.46 2.07,1.31 2.79,1.88 0.72,0.57 1.74,1.55 2.26,2.16 0.52,0.62 1.17,1.54 1.45,2.05 0.28,0.5 0.56,0.92 0.63,0.92 0.07,0 0.12,-0.07 0.12,-0.16 0,-0.09 0.42,-0.79 0.94,-1.56 0.6,-0.91 1.44,-1.87 2.36,-2.7 0.78,-0.71 2.07,-1.69 2.86,-2.18 0.79,-0.48 2.2,-1.18 3.12,-1.54 0.92,-0.36 2.4,-0.8 3.28,-0.97 0.88,-0.18 2.21,-0.4 2.96,-0.5 0.75,-0.09 3.23,-0.2 5.52,-0.25 2.29,-0.04 4.74,-0.12 5.44,-0.16 0.7,-0.05 1.96,-0.19 2.8,-0.31 0.84,-0.13 2.2,-0.46 3.04,-0.74 0.84,-0.28 1.77,-0.63 2.08,-0.79 0.31,-0.16 1.14,-0.66 1.84,-1.13 0.7,-0.46 1.79,-1.36 2.41,-1.98 0.62,-0.63 1.5,-1.68 1.94,-2.34 0.44,-0.66 0.91,-1.42 1.04,-1.68 0.13,-0.27 0.46,-1.13 0.74,-1.92 0.27,-0.8 0.57,-1.92 0.67,-2.49 0.1,-0.57 0.24,-2.09 0.3,-3.36 0.06,-1.28 0.11,-18.46 0.11,-38.18 -0.01,-35.72 -0.01,-35.85 0.31,-35.92 0.18,-0.04 3.31,-0.05 6.96,-0.03 3.65,0.02 6.71,0.01 6.8,-0.02 0.1,-0.04 0.15,-2.25 0.12,-6.3 l -0.04,-6.25 -8.64,0 0,-3.21 c 6.39,0 8.33,-0.06 8.43,-0.12 0.14,-0.09 0.2,-1.72 0.22,-6.29 l 0.03,-6.17 -14.2,-0.08 c 0.04,-5.53 0.02,-7.56 -0.03,-8.09 l -0.08,-0.96 -87.22,-0.04 0.03,4.55 z"
       id="path3039"
       inkscape:connector-curvature="0"
       style="fill:#d5b048" />
    <path
       class="shp1"
       d="m 50.88,67.26 c 0.31,0.04 0.85,0.04 1.2,0 0.35,-0.03 0.1,-0.06 -0.56,-0.06 -0.66,0 -0.95,0.03 -0.64,0.06 z m 57.17,4.53 c 0,0.67 0.03,0.95 0.07,0.65 0.03,-0.31 0.03,-0.85 0,-1.21 -0.04,-0.35 -0.07,-0.1 -0.07,0.56 z m -101.6,7.3 c 0.01,0.7 0.03,0.95 0.07,0.56 0.03,-0.4 0.03,-0.98 0,-1.28 -0.04,-0.31 -0.07,0.01 -0.07,0.72 z"
       id="path3041"
       inkscape:connector-curvature="0"
       style="fill:#fffffe" />
    <path
       class="shp2"
       d="M 9.68,79.27 C 9.61,79.33 9.56,80.92 9.57,82.8 l 0.03,3.42 109.77,-0.08 c 0.06,-6.01 0.02,-6.83 -0.13,-6.89 -0.11,-0.05 -24.78,-0.08 -54.81,-0.08 -30.04,0 -54.68,0.04 -54.75,0.1 z"
       id="path3043"
       inkscape:connector-curvature="0"
       style="fill:#43a1d5" />
    <path
       class="shp1"
       d="m 122.3,81.41 c 0,0.75 0.02,1.04 0.06,0.64 0.03,-0.4 0.03,-1.01 0,-1.36 -0.04,-0.35 -0.06,-0.03 -0.06,0.72 z M 6.46,83.97 c 0,0.75 0.02,1.04 0.06,0.65 0.03,-0.4 0.03,-1.01 0,-1.37 C 6.48,82.9 6.46,83.23 6.46,83.97 z m 115.84,2.57 c 0,0.75 0.02,1.04 0.06,0.64 0.03,-0.4 0.03,-1.01 0,-1.36 -0.04,-0.36 -0.06,-0.03 -0.06,0.72 z m -103.74,4.08 0,4.41 91.39,-0.08 -0.03,-8.65 -91.36,-0.08 0,4.4 z M 6.45,93.59 c 0,0.66 0.03,0.95 0.07,0.64 0.03,-0.31 0.03,-0.85 0,-1.2 -0.04,-0.35 -0.07,-0.1 -0.07,0.56 z m 115.85,2.16 c 0,0.8 0.02,1.16 0.06,0.8 0.03,-0.35 0.03,-1 0,-1.44 -0.04,-0.44 -0.06,-0.15 -0.06,0.64 z"
       id="path3045"
       inkscape:connector-curvature="0"
       style="fill:#fffffe" />
    <path
       class="shp2"
       d="M 9.68,95.14 C 9.61,95.2 9.56,96.78 9.57,98.66 l 0.03,3.42 109.76,0 c 0.07,-5.53 0.02,-6.85 -0.08,-6.93 -0.09,-0.06 -24.75,-0.11 -54.81,-0.12 -30.06,0 -54.72,0.05 -54.79,0.11 z"
       id="path3047"
       inkscape:connector-curvature="0"
       style="fill:#43a1d5" />
    <path
       class="shp1"
       d="m 6.45,98.32 c 0.01,0.7 0.03,0.95 0.07,0.56 0.03,-0.4 0.03,-0.98 0,-1.28 -0.04,-0.31 -0.07,0.01 -0.07,0.72 z m 115.85,2.32 c 0,0.75 0.02,1.04 0.06,0.64 0.03,-0.39 0.03,-1.01 0,-1.36 -0.04,-0.35 -0.06,-0.03 -0.06,0.72 z M 6.46,103.21 c 0,0.74 0.02,1.03 0.06,0.64 0.03,-0.4 0.03,-1.01 0,-1.37 -0.04,-0.35 -0.06,-0.02 -0.06,0.73 z m 1.46,1.55 c 0.26,0.04 0.77,0.04 1.12,0 0.35,-0.03 0.14,-0.06 -0.48,-0.06 -0.62,0 -0.9,0.03 -0.64,0.06 z m 4.72,0 c 0.4,0.04 0.97,0.04 1.28,0 0.31,-0.03 -0.02,-0.06 -0.72,-0.06 -0.7,0 -0.96,0.03 -0.56,0.06 z m 4.8,0 c 0.4,0.04 0.97,0.04 1.28,0 0.31,-0.03 -0.02,-0.06 -0.72,-0.06 -0.7,0 -0.96,0.03 -0.56,0.06 z m 96,0 c 0.4,0.04 0.97,0.04 1.28,0 0.31,-0.03 -0.02,-0.06 -0.72,-0.06 -0.7,0 -0.96,0.03 -0.56,0.06 z m 4.8,0 c 0.4,0.04 0.97,0.04 1.28,0 0.31,-0.03 -0.02,-0.06 -0.72,-0.06 -0.7,0 -0.96,0.03 -0.56,0.06 z"
       id="path3049"
       inkscape:connector-curvature="0"
       style="fill:#fffffe" />
    <path
       class="shp3"
       d="m 39.2,107.61 c 0,0.13 0.4,1.02 0.89,1.97 0.49,0.94 1.23,2.19 1.64,2.76 0.41,0.57 0.96,1.28 1.22,1.58 0.27,0.3 0.91,0.95 1.42,1.44 0.52,0.5 1.35,1.21 1.84,1.58 0.5,0.37 1.45,0.94 2.11,1.27 0.66,0.32 1.7,0.76 2.32,0.97 0.62,0.21 1.95,0.59 2.96,0.85 1.01,0.26 2.49,0.58 3.28,0.71 0.79,0.14 1.73,0.25 2.08,0.26 0.35,0 0.73,0.05 0.84,0.12 0.15,0.09 0.19,5.04 0.16,23.17 l -0.04,23.05 c -2.6,0.93 -3.68,1.36 -4.08,1.57 -0.4,0.2 -1.08,0.63 -1.52,0.96 -0.44,0.32 -1.01,0.84 -1.26,1.14 -0.26,0.3 -0.6,0.83 -0.76,1.19 -0.16,0.35 -0.29,0.91 -0.3,1.24 0,0.43 0.11,0.71 0.4,1 0.33,0.33 0.5,0.38 1,0.3 0.33,-0.05 1.1,-0.36 1.7,-0.68 0.61,-0.32 1.26,-0.67 1.44,-0.78 0.19,-0.11 0.77,-0.27 1.3,-0.36 0.53,-0.09 1.5,-0.16 2.16,-0.16 0.66,-0.01 1.74,0.13 2.4,0.3 0.66,0.16 1.6,0.5 2.08,0.74 0.58,0.29 1.4,0.98 2.4,2 1.16,1.18 1.79,1.69 2.68,2.14 0.64,0.32 1.72,0.73 2.4,0.9 0.83,0.22 1.77,0.32 2.84,0.32 0.88,0 1.96,-0.09 2.4,-0.21 0.44,-0.12 1.12,-0.38 1.52,-0.58 0.4,-0.21 1.08,-0.64 1.52,-0.97 0.44,-0.32 1,-0.87 1.25,-1.21 0.29,-0.41 0.46,-0.86 0.48,-1.29 0.02,-0.36 -0.08,-0.85 -0.21,-1.1 -0.13,-0.24 -0.44,-0.54 -0.68,-0.66 -0.24,-0.12 -0.66,-0.22 -0.92,-0.22 -0.26,0 -1.15,0.19 -1.96,0.42 -1.07,0.3 -1.7,0.4 -2.28,0.34 -0.44,-0.05 -1.23,-0.3 -1.76,-0.57 -0.53,-0.26 -1.86,-1.15 -2.96,-1.96 -1.12,-0.83 -2.63,-1.79 -3.44,-2.17 -0.79,-0.37 -1.93,-0.83 -2.52,-1.02 l -1.08,-0.33 0,-23.4 6.4,0 0,6.41 4.64,0 0,-18.43 -4.56,0.08 -0.08,6.01 -6.4,0 -0.01,-17.39 c 1.43,-0.33 2.8,-0.79 3.97,-1.22 1.17,-0.43 2.68,-0.92 3.36,-1.1 0.68,-0.17 1.89,-0.38 2.68,-0.47 0.86,-0.08 1.96,-0.09 2.72,0 0.7,0.08 1.71,0.29 2.24,0.47 0.53,0.18 1.32,0.54 1.76,0.79 0.44,0.24 1.38,0.88 2.08,1.41 0.7,0.53 1.96,1.39 2.8,1.92 0.84,0.52 1.92,1.11 2.4,1.32 0.48,0.2 1.24,0.4 1.68,0.44 0.5,0.05 1.01,-0.01 1.36,-0.16 0.31,-0.13 0.76,-0.46 1,-0.73 0.24,-0.28 0.49,-0.77 0.54,-1.1 0.06,-0.33 0.06,-1.43 0.01,-2.45 -0.05,-1.01 -0.23,-2.35 -0.4,-2.96 -0.16,-0.62 -0.49,-1.49 -0.72,-1.93 -0.22,-0.44 -0.72,-1.19 -1.11,-1.68 -0.38,-0.48 -1.2,-1.26 -1.81,-1.72 -0.61,-0.46 -1.61,-1.05 -2.23,-1.31 -0.62,-0.26 -1.55,-0.59 -2.08,-0.73 -0.53,-0.14 -1.61,-0.33 -2.4,-0.42 -1.05,-0.13 -1.94,-0.13 -3.28,0 -1.01,0.1 -2.24,0.28 -2.72,0.39 -0.48,0.12 -2.14,0.62 -3.68,1.11 -1.54,0.49 -3.56,1.04 -4.48,1.22 -0.92,0.18 -2.44,0.41 -3.36,0.5 -0.92,0.09 -3.21,0.16 -5.08,0.16 -2.08,0 -4.13,-0.09 -5.28,-0.24 -1.03,-0.13 -2.6,-0.39 -3.48,-0.58 -0.88,-0.18 -2.43,-0.58 -3.44,-0.89 -1.01,-0.31 -2.6,-0.88 -3.52,-1.29 -0.92,-0.4 -2.08,-0.95 -2.56,-1.22 -0.48,-0.26 -1.08,-0.62 -1.32,-0.78 -0.24,-0.16 -0.48,-0.29 -0.52,-0.29 -0.04,0 -0.08,0.11 -0.08,0.24 z"
       id="path3051"
       inkscape:connector-curvature="0"
       style="fill:#173e69" />
    <path
       class="shp1"
       d="m 108.05,110.26 c 0,0.66 0.03,0.95 0.07,0.64 0.03,-0.31 0.03,-0.85 0,-1.2 -0.04,-0.36 -0.07,-0.1 -0.07,0.56 z"
       id="path3053"
       inkscape:connector-curvature="0"
       style="fill:#fffffe" />
    <path
       class="shp0"
       d="m 7.33,119.27 c -0.23,0.38 -0.76,1.69 -1.17,2.93 -0.42,1.23 -0.89,2.85 -1.06,3.6 -0.18,0.75 -0.4,1.76 -0.51,2.24 l -0.2,0.89 c -0.58,-1.74 -1.08,-2.87 -1.49,-3.63 -0.41,-0.76 -1.05,-1.72 -1.42,-2.12 -0.37,-0.41 -0.72,-0.73 -0.76,-0.7 -0.04,0.02 -0.16,0.5 -0.27,1.08 -0.15,0.84 -0.13,1.56 0.09,3.76 0.14,1.5 0.36,3.05 0.48,3.45 0.12,0.4 0.27,1.12 0.34,1.6 0.06,0.49 0.22,1.28 0.35,1.76 0.12,0.49 0.36,1.39 0.53,2.01 0.16,0.61 0.58,1.99 0.93,3.04 0.35,1.06 0.73,2.14 0.84,2.41 0.1,0.26 0.51,1.13 0.89,1.92 0.39,0.79 0.94,1.75 1.22,2.13 l 0.52,0.7 c -0.31,2.03 -0.72,3.63 -1.1,4.86 -0.38,1.24 -0.82,2.79 -0.97,3.45 -0.15,0.66 -0.35,1.45 -0.44,1.76 l -0.17,0.56 c -0.8,-1.99 -1.24,-2.97 -1.49,-3.46 -0.26,-0.49 -0.79,-1.3 -1.19,-1.8 -0.4,-0.5 -0.81,-0.91 -0.92,-0.91 -0.12,0 -0.24,0.31 -0.3,0.76 -0.06,0.42 -0.06,1.59 -0.01,2.61 0.06,1.01 0.17,2.42 0.26,3.12 0.09,0.71 0.31,1.93 0.5,2.73 0.19,0.79 0.37,1.69 0.41,2 0.04,0.31 0.36,1.53 0.72,2.72 0.37,1.19 0.94,2.98 1.28,3.97 0.34,0.99 0.92,2.4 1.29,3.12 0.36,0.73 0.9,1.65 1.19,2.05 l 0.52,0.72 c -0.25,1.86 -0.27,3.23 -0.22,4.25 0.06,1.01 0.13,2.16 0.18,2.56 0.04,0.4 0.15,1.26 0.23,1.92 0.09,0.66 0.19,1.37 0.24,1.57 0.04,0.19 0.02,0.35 -0.05,0.35 -0.07,0 -0.37,-0.34 -0.68,-0.75 -0.31,-0.41 -1.06,-1.24 -1.68,-1.84 -0.62,-0.6 -1.17,-1.09 -1.24,-1.09 -0.07,0 -0.21,-0.09 -0.32,-0.21 -0.11,-0.11 -0.54,-0.4 -0.96,-0.64 l -0.76,-0.43 c -0.01,0.93 0.09,1.49 0.22,1.84 0.12,0.35 0.44,1.13 0.72,1.72 0.27,0.6 0.5,1.12 0.5,1.17 0,0.04 0.52,1.03 1.16,2.2 0.63,1.17 1.23,2.2 1.33,2.28 0.1,0.09 0.62,0.9 1.16,1.81 0.55,0.9 1.06,1.64 1.15,1.64 0.09,0 0.16,0.09 0.17,0.2 0,0.11 0.27,0.56 0.6,1 0.32,0.44 0.86,1.12 1.2,1.52 0.33,0.4 0.75,0.9 0.93,1.12 0.18,0.23 1.02,1.12 1.87,1.99 0.85,0.87 1.73,1.67 1.95,1.78 0.22,0.12 1.05,0.91 1.84,1.78 0.79,0.86 1.94,1.93 2.56,2.39 0.62,0.46 1.36,0.93 1.65,1.05 0.29,0.13 0.52,0.28 0.52,0.35 -0.01,0.07 0.12,0.16 0.27,0.2 0.15,0.05 0.42,0.18 0.6,0.28 0.18,0.11 0.64,0.44 1.04,0.73 0.4,0.29 0.85,0.52 1,0.52 0.15,-0.01 0.28,0.05 0.28,0.11 -0.01,0.07 0.39,0.3 0.87,0.52 0.48,0.22 0.84,0.46 0.8,0.52 -0.04,0.07 -1.17,0.11 -2.51,0.09 -1.42,-0.02 -2.82,0.05 -3.36,0.16 -0.63,0.14 -0.97,0.29 -1.08,0.52 -0.09,0.17 -0.16,0.33 -0.16,0.36 -0.01,0.02 0.12,0.18 0.28,0.36 0.15,0.17 0.43,0.4 0.6,0.5 0.18,0.1 0.61,0.23 0.96,0.29 0.35,0.06 0.91,0.22 1.24,0.34 0.33,0.13 0.8,0.23 1.04,0.23 0.24,0 0.89,0.15 1.44,0.32 0.55,0.18 1.36,0.32 1.8,0.32 0.44,0 0.84,0.07 0.88,0.16 0.04,0.09 0.39,0.16 0.76,0.16 0.37,0 1.08,0.07 1.56,0.15 0.48,0.09 1.28,0.2 1.76,0.25 0.48,0.05 2.18,0.16 3.76,0.25 1.58,0.08 3.53,0.1 4.32,0.04 0.79,-0.06 1.51,-0.12 1.6,-0.13 0.09,-0.01 0.41,-0.07 0.72,-0.13 0.31,-0.06 0.97,-0.15 1.48,-0.19 0.67,-0.06 0.95,-0.02 1.04,0.14 0.07,0.12 0.3,0.25 0.52,0.3 0.22,0.04 1.41,0.35 2.64,0.68 1.23,0.33 2.33,0.68 2.45,0.78 0.11,0.1 0.15,0.23 0.08,0.29 -0.07,0.06 -0.45,0.28 -0.85,0.5 -0.4,0.22 -1.19,0.65 -1.76,0.95 -0.57,0.3 -1.36,0.76 -1.76,1.01 -0.4,0.25 -1.07,0.75 -1.49,1.11 -0.43,0.36 -0.91,0.9 -1.09,1.21 -0.17,0.31 -0.27,0.6 -0.21,0.64 0.05,0.05 1.08,0.11 2.28,0.14 1.21,0.03 2.91,-0.04 3.79,-0.14 0.88,-0.11 2.28,-0.4 3.12,-0.65 0.84,-0.25 2.4,-0.81 3.47,-1.23 1.08,-0.42 1.96,-0.71 1.96,-0.64 0.01,0.07 -0.05,0.14 -0.11,0.16 -0.07,0.02 -0.57,0.58 -1.1,1.24 -0.54,0.66 -1.42,1.89 -1.96,2.73 -0.76,1.17 -0.98,1.65 -0.98,2.12 l 0,0.6 3.44,0 c 0.43,-1.43 0.83,-2.38 1.16,-3.04 0.34,-0.67 1.02,-1.82 1.51,-2.57 0.5,-0.75 1.32,-1.82 1.84,-2.38 0.51,-0.57 1.13,-1.13 1.37,-1.25 0.29,-0.14 1.03,-0.22 2.2,-0.22 1.17,0 1.91,0.08 2.2,0.22 0.24,0.12 0.86,0.68 1.37,1.25 0.51,0.56 1.35,1.63 1.85,2.38 0.51,0.75 1.22,1.98 1.57,2.73 0.35,0.74 0.74,1.7 0.86,2.12 l 0.23,0.76 3.44,0 c 0,-0.87 -0.13,-1.39 -0.3,-1.72 -0.16,-0.33 -0.58,-0.99 -0.92,-1.47 -0.34,-0.47 -1.03,-1.37 -1.53,-2 -0.5,-0.63 -1.02,-1.27 -1.16,-1.42 -0.14,-0.15 -0.25,-0.32 -0.25,-0.36 0,-0.05 0.88,0.29 1.96,0.74 1.08,0.46 2.32,0.93 2.76,1.06 0.44,0.13 1.16,0.33 1.6,0.46 0.44,0.12 1.27,0.28 1.84,0.34 0.57,0.07 2.24,0.12 3.71,0.12 1.46,0 2.71,-0.05 2.76,-0.12 0.05,-0.06 -0.03,-0.32 -0.18,-0.56 -0.15,-0.24 -0.6,-0.78 -1,-1.2 -0.4,-0.42 -0.78,-0.76 -0.85,-0.76 -0.07,0 -0.46,-0.23 -0.88,-0.5 -0.42,-0.28 -1.41,-0.83 -2.2,-1.22 -0.79,-0.4 -1.6,-0.86 -1.8,-1.03 -0.27,-0.22 -0.31,-0.33 -0.16,-0.44 0.11,-0.09 0.49,-0.22 0.84,-0.31 0.35,-0.09 1.07,-0.28 1.6,-0.42 0.53,-0.15 1.64,-0.44 2.48,-0.65 1.3,-0.33 1.67,-0.37 2.56,-0.24 0.57,0.08 1.98,0.19 3.12,0.25 1.14,0.05 3.23,0.02 4.64,-0.07 1.41,-0.09 3.24,-0.24 4.08,-0.33 0.84,-0.09 2.2,-0.28 3.04,-0.42 0.84,-0.14 2.38,-0.42 3.44,-0.63 1.06,-0.21 2.24,-0.49 2.64,-0.61 0.4,-0.12 1.31,-0.45 2.04,-0.73 0.81,-0.31 1.3,-0.58 1.27,-0.7 -0.03,-0.11 -0.63,-0.37 -1.32,-0.57 -0.98,-0.28 -1.85,-0.39 -3.83,-0.46 -2.5,-0.1 -2.55,-0.11 -2.04,-0.36 0.29,-0.14 1.37,-0.76 2.39,-1.38 1.03,-0.62 1.94,-1.2 2.04,-1.29 0.09,-0.1 0.48,-0.37 0.85,-0.6 0.37,-0.24 1.24,-0.92 1.92,-1.52 0.68,-0.6 1.53,-1.46 1.88,-1.91 0.35,-0.45 0.93,-1.01 1.28,-1.23 0.35,-0.23 1.36,-1.16 2.24,-2.06 0.88,-0.91 1.97,-2.08 2.42,-2.61 0.45,-0.53 1.05,-1.32 1.35,-1.76 0.3,-0.44 0.81,-1.16 1.14,-1.6 0.34,-0.44 0.7,-0.91 0.81,-1.04 0.1,-0.14 0.27,-0.39 0.36,-0.56 0.09,-0.18 0.42,-0.72 0.74,-1.21 0.31,-0.48 0.93,-1.53 1.36,-2.32 0.43,-0.79 0.86,-1.62 0.96,-1.84 0.1,-0.22 0.47,-1.02 0.82,-1.77 0.35,-0.74 0.73,-1.65 0.83,-2 0.11,-0.35 0.17,-0.87 0.14,-1.15 l -0.05,-0.51 c -1.52,0.92 -2.21,1.4 -2.5,1.67 -0.3,0.27 -0.94,0.92 -1.42,1.44 -0.49,0.53 -1.05,1.17 -1.25,1.44 -0.19,0.26 -0.39,0.44 -0.42,0.4 -0.04,-0.05 0.03,-0.73 0.15,-1.53 0.12,-0.79 0.26,-1.83 0.3,-2.32 0.05,-0.48 0.13,-1.67 0.18,-2.64 0.06,-0.97 0.03,-2.31 -0.06,-2.97 -0.15,-1.15 -0.14,-1.22 0.23,-1.72 0.21,-0.29 0.39,-0.56 0.39,-0.6 0,-0.05 0.3,-0.61 0.67,-1.24 0.36,-0.64 0.98,-1.96 1.37,-2.93 0.39,-0.97 0.76,-2.05 0.83,-2.4 0.08,-0.36 0.39,-1.47 0.69,-2.49 0.31,-1.01 0.68,-2.45 0.82,-3.2 0.15,-0.75 0.38,-1.91 0.51,-2.57 0.14,-0.66 0.31,-1.59 0.38,-2.08 0.08,-0.48 0.14,-1.89 0.15,-3.12 0,-1.24 -0.05,-2.37 -0.11,-2.52 -0.06,-0.15 -0.19,-0.23 -0.29,-0.16 -0.09,0.06 -0.49,0.51 -0.89,0.99 -0.39,0.49 -0.83,1.06 -0.98,1.28 -0.14,0.23 -0.58,1.2 -0.97,2.17 l -0.71,1.76 c -0.27,-0.99 -0.52,-1.93 -0.73,-2.72 -0.21,-0.8 -0.44,-1.73 -0.5,-2.09 -0.06,-0.35 -0.32,-1.18 -0.57,-1.84 -0.26,-0.66 -0.55,-1.83 -0.67,-2.59 l -0.2,-1.39 c 0.77,-1.08 1.4,-2.22 1.89,-3.23 0.5,-1.01 1.09,-2.38 1.31,-3.05 0.23,-0.66 0.62,-1.92 0.87,-2.8 0.25,-0.88 0.6,-2.18 0.78,-2.88 0.18,-0.71 0.45,-1.94 0.6,-2.73 0.15,-0.79 0.34,-1.84 0.41,-2.32 0.08,-0.49 0.21,-1.35 0.3,-1.93 0.09,-0.57 0.17,-1.11 0.17,-1.2 0,-0.09 -0.04,-0.92 -0.09,-1.84 -0.05,-0.93 -0.16,-1.76 -0.23,-1.84 -0.09,-0.1 -0.37,0.1 -0.76,0.53 -0.33,0.39 -0.82,1 -1.07,1.37 -0.25,0.36 -0.61,1.02 -0.81,1.46 -0.2,0.44 -0.53,1.31 -0.73,1.92 l -0.38,1.13 c -0.54,-2.36 -0.92,-3.84 -1.19,-4.81 -0.27,-0.97 -0.72,-2.38 -0.99,-3.13 -0.27,-0.75 -0.61,-1.57 -0.76,-1.83 -0.16,-0.25 -0.35,-0.49 -0.44,-0.52 -0.09,-0.03 -0.29,0.21 -0.46,0.55 -0.16,0.33 -0.53,1.21 -0.82,1.96 -0.34,0.88 -0.71,2.37 -1.03,4.17 -0.27,1.54 -0.53,2.97 -0.57,3.17 -0.05,0.19 -0.15,0.36 -0.24,0.36 -0.09,0 -0.52,-0.85 -0.97,-1.89 -0.45,-1.03 -0.86,-1.92 -0.93,-1.96 -0.06,-0.04 -0.34,-0.44 -0.63,-0.88 -0.28,-0.44 -0.67,-0.99 -0.87,-1.21 -0.2,-0.22 -0.49,-0.46 -0.64,-0.52 -0.24,-0.1 -0.28,-0.02 -0.28,0.49 0,0.33 0.07,1.41 0.16,2.4 0.09,0.99 0.38,3.1 0.64,4.69 0.26,1.58 0.54,3.04 0.62,3.24 0.08,0.2 0.26,0.87 0.41,1.49 0.14,0.61 0.4,1.59 0.58,2.16 0.18,0.57 0.44,1.4 0.58,1.84 0.14,0.44 0.38,1.06 0.54,1.36 0.16,0.31 0.56,1.14 0.89,1.85 0.33,0.7 0.87,1.73 1.21,2.28 0.33,0.55 0.61,1.07 0.61,1.16 0,0.09 0.05,0.16 0.12,0.16 0.07,0 0.18,0.81 0.24,1.8 0.12,1.74 0.11,1.86 -0.35,3.25 -0.26,0.79 -0.66,2.42 -0.88,3.61 -0.22,1.19 -0.41,2.39 -0.41,2.68 0,0.29 -0.05,0.52 -0.12,0.53 -0.07,0 -0.36,-0.56 -0.66,-1.24 -0.3,-0.69 -0.69,-1.58 -0.87,-1.97 -0.18,-0.4 -0.54,-1.05 -0.8,-1.45 -0.26,-0.39 -0.77,-1.02 -1.13,-1.4 -0.36,-0.38 -0.77,-0.68 -0.9,-0.68 -0.2,0 -0.22,0.16 -0.12,1 0.07,0.55 0.19,1.8 0.28,2.77 0.09,0.97 0.23,2.08 0.31,2.48 0.08,0.4 0.23,1.23 0.33,1.84 0.1,0.62 0.37,1.88 0.59,2.81 0.22,0.92 0.44,1.86 0.48,2.08 0.04,0.22 0.14,0.55 0.21,0.72 0.07,0.18 0.29,0.79 0.47,1.37 0.18,0.57 0.33,1.16 0.33,1.32 0,0.15 0.07,0.28 0.16,0.28 0.09,0 0.16,0.11 0.16,0.24 0,0.13 0.25,0.76 0.55,1.4 0.3,0.64 0.58,1.31 0.63,1.48 0.05,0.18 0.57,1.08 1.14,2.01 1,1.61 1.04,1.72 1.05,2.72 0,0.93 -0.06,1.13 -0.55,1.84 -0.31,0.44 -0.8,1.17 -1.11,1.61 -0.3,0.44 -1.06,1.68 -1.69,2.76 -0.63,1.08 -1.19,1.96 -1.26,1.96 -0.07,0 -0.17,-0.99 -0.24,-2.2 -0.06,-1.21 -0.17,-2.24 -0.24,-2.28 -0.07,-0.05 -0.21,-0.41 -0.31,-0.81 -0.1,-0.39 -0.34,-1.06 -0.52,-1.48 -0.18,-0.42 -0.4,-0.76 -0.49,-0.76 -0.09,0 -0.2,0.2 -0.25,0.44 -0.05,0.24 -0.23,0.91 -0.4,1.48 -0.17,0.58 -0.53,1.98 -0.8,3.13 -0.27,1.15 -0.57,2.66 -0.65,3.36 -0.09,0.71 -0.23,1.65 -0.32,2.09 -0.08,0.44 -0.22,1.92 -0.31,3.28 -0.09,1.55 -0.1,3.4 -0.01,4.89 0.09,1.48 0.29,3.03 0.52,4.03 l 0.38,1.62 c -0.99,0.99 -1.43,1.45 -1.62,1.66 -0.29,0.33 -0.53,0.4 -1.84,0.5 -0.82,0.06 -2.54,0.31 -3.82,0.54 -1.28,0.23 -2.64,0.45 -3.04,0.49 l -0.72,0.08 c 0.62,-0.54 1.02,-0.88 1.28,-1.11 0.26,-0.23 0.91,-0.81 1.44,-1.3 0.53,-0.48 1.18,-1.16 1.44,-1.51 0.26,-0.35 0.64,-0.89 0.83,-1.21 0.19,-0.32 0.35,-0.71 0.36,-0.86 0,-0.16 -0.03,-0.28 -0.07,-0.28 -0.04,0 -1.03,0.42 -2.2,0.95 -1.17,0.52 -2.34,1.05 -2.6,1.16 -0.26,0.12 -1.27,0.61 -2.24,1.11 -0.97,0.5 -1.98,1.04 -2.26,1.2 -0.27,0.17 -0.99,0.59 -1.6,0.94 -0.6,0.36 -1.5,0.93 -1.98,1.29 -0.48,0.35 -1.1,0.78 -1.36,0.95 -0.26,0.16 -1.05,0.74 -1.75,1.28 -0.69,0.53 -1.92,1.6 -2.72,2.36 -0.8,0.76 -1.67,1.68 -1.93,2.04 -0.26,0.36 -0.61,0.65 -0.76,0.65 -0.15,0.01 -0.95,-0.25 -1.76,-0.57 -0.81,-0.32 -1.53,-0.61 -1.6,-0.64 -0.07,-0.04 0.06,-0.26 0.28,-0.51 0.22,-0.24 0.77,-0.9 1.22,-1.48 0.46,-0.57 1.03,-1.49 1.28,-2.04 0.25,-0.55 0.53,-1.29 0.62,-1.64 0.11,-0.43 0.11,-0.67 0,-0.72 -0.09,-0.05 -1.22,0.21 -2.52,0.56 -1.3,0.35 -2.97,0.83 -3.72,1.05 -0.75,0.23 -2.12,0.63 -3.04,0.89 -0.92,0.27 -2.36,0.82 -3.2,1.23 -1.25,0.62 -1.76,1 -2.89,2.11 -0.75,0.75 -1.69,1.79 -2.08,2.3 l -0.71,0.92 -4.64,0 c -1.01,-1.31 -1.98,-2.36 -2.81,-3.19 -1.3,-1.28 -1.73,-1.59 -3.03,-2.21 -0.84,-0.4 -2.17,-0.91 -2.96,-1.13 -0.79,-0.22 -2.59,-0.75 -4,-1.17 -1.41,-0.43 -3.15,-0.92 -3.88,-1.11 -0.73,-0.18 -1.36,-0.33 -1.4,-0.33 -0.04,0 -0.08,0.12 -0.08,0.28 0,0.15 0.13,0.71 0.29,1.24 0.17,0.53 0.4,1.14 0.51,1.36 0.12,0.22 0.72,1.07 1.35,1.89 0.62,0.82 1.2,1.49 1.28,1.48 0.1,0 0.1,0.05 0,0.15 -0.08,0.09 -0.83,0.42 -1.67,0.73 -0.84,0.31 -1.63,0.56 -1.76,0.57 -0.13,0 -0.42,-0.17 -0.65,-0.37 -0.22,-0.2 -0.49,-0.56 -0.6,-0.8 -0.1,-0.25 -0.44,-0.61 -0.75,-0.81 -0.3,-0.19 -0.56,-0.43 -0.55,-0.52 0,-0.08 -0.45,-0.57 -1.01,-1.08 -0.55,-0.5 -1.29,-1.12 -1.65,-1.36 -0.36,-0.24 -0.97,-0.69 -1.36,-1 -0.39,-0.31 -0.83,-0.63 -0.98,-0.72 -0.15,-0.09 -0.55,-0.35 -0.88,-0.58 -0.34,-0.23 -1.01,-0.67 -1.49,-0.98 -0.48,-0.31 -1.17,-0.73 -1.52,-0.94 -0.35,-0.2 -1.47,-0.81 -2.48,-1.35 -1.01,-0.55 -2.09,-1.1 -2.4,-1.24 -0.31,-0.14 -1.5,-0.66 -2.64,-1.15 -1.14,-0.5 -2.17,-0.9 -2.28,-0.9 -0.11,0 -0.2,0.02 -0.2,0.05 -0.01,0.02 0.1,0.31 0.24,0.64 0.13,0.33 0.61,1.05 1.07,1.6 0.46,0.55 1.23,1.38 1.72,1.84 0.49,0.46 1.03,0.89 1.21,0.95 0.18,0.06 0.59,0.31 0.92,0.56 0.44,0.33 0.53,0.48 0.36,0.54 -0.13,0.04 -0.4,0.08 -0.6,0.08 -0.2,0 -0.65,-0.1 -1,-0.22 -0.35,-0.12 -1.11,-0.27 -1.68,-0.32 -0.57,-0.06 -1.44,-0.21 -1.92,-0.35 -0.48,-0.13 -1.59,-0.29 -2.46,-0.36 l -1.58,-0.12 c -1.46,-1.49 -1.88,-2.03 -1.88,-2.16 0.01,-0.13 0.08,-0.53 0.17,-0.88 0.1,-0.35 0.3,-1.62 0.45,-2.81 0.16,-1.26 0.27,-3.09 0.26,-4.4 -0.01,-1.24 -0.11,-3.15 -0.22,-4.25 -0.11,-1.1 -0.27,-2.22 -0.35,-2.48 -0.08,-0.27 -0.15,-0.7 -0.15,-0.97 0,-0.26 -0.1,-0.94 -0.22,-1.52 -0.12,-0.57 -0.34,-1.47 -0.48,-2 -0.14,-0.53 -0.33,-1.36 -0.42,-1.84 -0.09,-0.49 -0.33,-1.37 -0.52,-1.97 -0.2,-0.6 -0.43,-1.06 -0.52,-1.03 -0.09,0.03 -0.37,0.63 -0.62,1.33 -0.25,0.69 -0.52,1.41 -0.61,1.59 -0.08,0.17 -0.19,1.27 -0.26,2.44 -0.06,1.17 -0.17,2.15 -0.25,2.17 -0.08,0.02 -0.4,-0.45 -0.72,-1.04 -0.32,-0.6 -0.94,-1.68 -1.37,-2.41 -0.44,-0.73 -1.09,-1.72 -1.46,-2.21 -0.36,-0.48 -0.74,-1.04 -0.85,-1.24 -0.1,-0.2 -0.18,-0.81 -0.19,-1.36 0,-0.93 0.06,-1.09 0.77,-2.2 0.42,-0.66 1.18,-2.09 1.68,-3.17 0.51,-1.08 0.92,-2.05 0.92,-2.16 -0.01,-0.11 0.05,-0.26 0.12,-0.34 0.06,-0.08 0.25,-0.51 0.4,-0.96 0.16,-0.46 0.51,-1.65 0.78,-2.67 0.27,-1.01 0.59,-2.27 0.7,-2.8 0.11,-0.53 0.36,-1.79 0.54,-2.81 0.19,-1.01 0.34,-2.11 0.34,-2.44 0,-0.33 0.06,-0.73 0.14,-0.88 0.08,-0.16 0.17,-1.13 0.2,-2.17 0.05,-1.43 0.01,-1.88 -0.14,-1.88 -0.11,0 -0.54,0.38 -0.96,0.85 -0.42,0.47 -0.93,1.18 -1.13,1.57 -0.21,0.39 -0.48,0.89 -0.6,1.11 -0.12,0.22 -0.48,1.03 -0.79,1.8 -0.31,0.77 -0.61,1.4 -0.68,1.4 -0.07,0.01 -0.21,-0.63 -0.33,-1.4 C 10,155.2 9.83,154.21 9.74,153.77 9.66,153.33 9.52,152.59 9.43,152.12 9.35,151.66 9.1,150.8 8.87,150.2 c -0.39,-1.02 -0.4,-1.18 -0.28,-2.89 0.07,-0.99 0.17,-1.8 0.21,-1.8 0.04,0 0.22,-0.29 0.4,-0.64 0.18,-0.36 0.36,-0.64 0.4,-0.64 0.04,0.01 0.43,-0.73 0.86,-1.64 0.42,-0.9 0.9,-1.9 1.05,-2.21 0.15,-0.3 0.57,-1.46 0.94,-2.56 0.36,-1.1 0.87,-2.87 1.14,-3.93 0.26,-1.05 0.59,-2.5 0.72,-3.2 0.13,-0.71 0.39,-2.42 0.57,-3.81 0.17,-1.39 0.32,-2.95 0.32,-3.48 0,-0.66 -0.06,-0.97 -0.2,-0.97 -0.11,-0.01 -0.45,0.26 -0.76,0.6 -0.31,0.33 -0.9,1.15 -1.31,1.81 -0.41,0.66 -0.96,1.74 -1.24,2.4 -0.27,0.66 -0.56,1.31 -0.65,1.45 -0.14,0.21 -0.18,0.21 -0.31,0 -0.08,-0.14 -0.23,-0.86 -0.33,-1.61 -0.1,-0.75 -0.29,-1.86 -0.42,-2.48 -0.13,-0.62 -0.3,-1.41 -0.38,-1.76 -0.07,-0.36 -0.38,-1.26 -0.69,-2.01 -0.3,-0.75 -0.65,-1.56 -0.77,-1.8 -0.12,-0.25 -0.26,-0.45 -0.31,-0.44 -0.04,0 -0.27,0.31 -0.5,0.68 z"
       id="path3055"
       inkscape:connector-curvature="0"
       style="fill:#d5b048" />
    <path
       class="shp1"
       d="m 108.05,124.76 c 0.01,0.7 0.03,0.96 0.07,0.56 0.03,-0.4 0.03,-0.97 0,-1.28 -0.04,-0.31 -0.07,0.01 -0.07,0.72 z"
       id="path3057"
       inkscape:connector-curvature="0"
       style="fill:#fffffe" />
    <path
       class="shp3"
       d="m 40.42,126.88 c -0.04,0.07 -0.98,3.01 -2.1,6.53 -1.12,3.53 -2.14,6.77 -2.27,7.22 -0.13,0.44 -0.34,1.12 -0.48,1.52 -0.13,0.39 -1.16,3.64 -2.29,7.21 -1.13,3.57 -2.23,7.03 -2.44,7.69 -0.21,0.66 -0.52,1.65 -0.69,2.2 l -0.31,1 -3.28,0.01 c 0,4.22 0.05,5.47 0.12,5.49 0.07,0.03 2.78,0.01 6.03,-0.04 l 5.91,-0.08 -0.05,-5.29 c -4.15,-0.08 -4.17,-0.09 -4.09,-0.44 0.04,-0.2 0.31,-1.36 0.6,-2.57 l 0.52,-2.2 c 10.3,0 11.61,0.04 11.66,0.2 0.04,0.11 0.31,1.23 0.6,2.49 0.3,1.26 0.51,2.32 0.47,2.36 -0.03,0.04 -0.99,0.08 -2.12,0.08 l -2.05,0 0,5.28 12.16,0 0,-5.28 c -3.46,0 -3.52,-0.02 -3.59,-0.36 -0.04,-0.2 -1.41,-5.23 -3.04,-11.18 -1.63,-5.95 -3.2,-11.65 -3.47,-12.66 -0.28,-1.02 -0.78,-2.82 -1.11,-4.01 -0.33,-1.19 -0.77,-2.78 -0.96,-3.52 -0.2,-0.75 -0.44,-1.46 -0.54,-1.57 -0.12,-0.15 -0.63,-0.21 -1.64,-0.2 -0.81,0 -1.51,0.06 -1.55,0.12 z m 45.11,0.08 c -0.04,0.11 -0.41,1.25 -0.81,2.53 -0.41,1.28 -0.96,3.01 -1.23,3.84 -0.26,0.84 -0.68,2.17 -0.93,2.97 -0.25,0.79 -0.86,2.74 -1.35,4.33 -0.5,1.58 -1.31,4.14 -1.8,5.68 -0.48,1.55 -1.41,4.47 -2.06,6.49 -0.64,2.03 -1.44,4.54 -1.78,5.58 l -0.61,1.89 -3.28,-0.01 0.08,5.53 c 0.93,0 3.65,-0.02 6.64,-0.04 l 5.44,-0.04 0,-5.45 c -3.22,0 -4.19,-0.06 -4.22,-0.12 -0.03,-0.07 0.18,-1.06 0.47,-2.21 0.29,-1.14 0.53,-2.24 0.54,-2.44 0.01,-0.25 0.12,-0.37 0.37,-0.4 0.2,-0.02 2.84,-0.01 5.87,0.04 l 5.52,0.08 c 0.77,3.23 1.04,4.36 1.1,4.61 l 0.11,0.44 -4.32,0 0.08,5.2 12.16,0 0.08,-5.2 -3.58,-0.08 c -1.46,-5.22 -2.23,-8 -2.66,-9.54 -0.43,-1.54 -0.92,-3.34 -1.1,-4.01 -0.17,-0.66 -0.86,-3.18 -1.53,-5.6 -0.66,-2.43 -1.4,-5.1 -1.63,-5.93 -0.22,-0.84 -0.66,-2.43 -0.96,-3.53 -0.3,-1.1 -0.65,-2.36 -0.78,-2.8 -0.12,-0.44 -0.29,-1.06 -0.36,-1.37 l -0.14,-0.56 c -2.84,-0.08 -3.28,-0.04 -3.33,0.12 z"
       id="path3059"
       inkscape:connector-curvature="0"
       style="fill:#173e69" />
    <path
       class="shp1"
       d="m 108.05,129.49 c 0,0.66 0.03,0.95 0.07,0.64 0.03,-0.31 0.03,-0.85 0,-1.2 -0.04,-0.36 -0.07,-0.1 -0.07,0.56 z"
       id="path3061"
       inkscape:connector-curvature="0"
       style="fill:#fffffe" />
    <path
       class="shp0"
       d="m 86.98,135.54 c -0.04,0.06 -0.22,0.62 -0.39,1.24 -0.18,0.62 -0.69,2.35 -1.14,3.85 -0.45,1.49 -1,3.3 -1.21,4 -0.21,0.71 -0.67,2.24 -1.03,3.41 -0.36,1.16 -0.65,2.16 -0.65,2.2 0,0.04 1.87,0.08 4.16,0.08 2.29,0 4.16,-0.05 4.16,-0.12 0.01,-0.07 -0.79,-3.42 -1.77,-7.45 -0.98,-4.03 -1.84,-7.33 -1.92,-7.33 -0.07,0 -0.17,0.05 -0.21,0.12 z m -45.27,0.31 c -0.05,0.16 -0.32,1.05 -0.59,1.97 -0.28,0.93 -0.71,2.37 -0.97,3.21 -0.25,0.83 -0.97,3.21 -1.58,5.28 -0.62,2.08 -1.13,3.82 -1.13,3.89 0,0.07 1.87,0.12 4.16,0.12 l 4.16,0 c -0.13,-0.68 -0.94,-3.98 -1.89,-7.76 -0.94,-3.78 -1.79,-6.9 -1.89,-6.94 -0.09,-0.03 -0.22,0.07 -0.27,0.23 z"
       id="path3063"
       inkscape:connector-curvature="0"
       style="fill:#d5b048" />
    <path
       class="shp1"
       d="m 108.05,143.99 c 0.01,0.71 0.03,0.96 0.07,0.56 0.03,-0.4 0.03,-0.97 0,-1.28 -0.04,-0.31 -0.07,0.02 -0.07,0.72 z m 0,4.73 c 0,0.66 0.03,0.95 0.07,0.64 0.03,-0.31 0.03,-0.85 0,-1.2 -0.04,-0.36 -0.07,-0.1 -0.07,0.56 z m 0,14.5 c 0.01,0.71 0.03,0.96 0.07,0.56 0.03,-0.39 0.03,-0.97 0,-1.28 -0.04,-0.31 -0.07,0.02 -0.07,0.72 z m 0,4.73 c 0,0.66 0.03,0.95 0.07,0.64 0.03,-0.31 0.03,-0.85 0,-1.2 -0.04,-0.35 -0.07,-0.1 -0.07,0.56 z"
       id="path3065"
       inkscape:connector-curvature="0"
       style="fill:#fffffe" />
    <path
       sodipodi:nodetypes="ccccccccccccccccccsccsscsssscsscscsccccccccccccc"
       class="shp0"
       d="m 63.438113,0.043194 c -0.1,0.21 -0.43,1.14 -0.74,2.06 -0.32,0.93 -0.76,2.26 -0.98,2.97 -0.23,0.7 -0.49,1.53 -0.57,1.84 -0.09,0.31 -0.45,1.39 -0.81,2.41 -0.35,1.01 -0.73,1.89 -0.85,1.96 -0.11,0.07 -2.84,0.11 -6.07,0.08 -3.22,-0.02 -5.91,0 -5.96,0.04 -0.06,0.04 0.53,0.55 1.3,1.13 0.78,0.59 1.77,1.31 2.2,1.61 0.44,0.3 0.91,0.63 1.04,0.74 0.14,0.11 0.75,0.56 1.37,1.02 0.62,0.45 1.48,1.06 1.92,1.35 0.44,0.3 1.07,0.78 1.4,1.07 l 0.61,0.53 c -0.47,1.37 -0.99,2.95 -1.45,4.41 -0.47,1.45 -0.91,2.79 -0.98,2.96 -0.08,0.18 -0.39,1.17 -0.7,2.21 -0.31,1.03 -0.56,1.95 -0.56,2.04 0,0.09 0.23,-0.01 0.52,-0.23 0.29,-0.21 0.96,-0.7 1.51,-1.08 0.54,-0.38 1.55,-1.1 2.24,-1.59 0.69,-0.49 1.36,-1 1.49,-1.13 0.13,-0.13 0.71,-0.55 1.28,-0.94 0.57,-0.38 1.42,-1.01 1.88,-1.39 0.46,-0.38 0.95,-0.69 1.08,-0.69 0.13,0 0.55,0.26 0.92,0.58 0.37,0.32 0.82,0.65 1,0.74 0.18,0.09 0.36,0.21 0.4,0.27 0.04,0.05 0.48,0.39 0.96,0.75 0.48,0.36 1.42,1.03 2.08,1.48 0.66,0.45 1.34,0.95 1.52,1.11 0.18,0.17 0.64,0.5 1.04,0.75 0.4,0.25 1.03,0.69 1.4,0.99 0.55,0.44 0.68,0.49 0.68,0.26 0,-0.15 -0.36,-1.4 -0.8,-2.76 -0.44,-1.37 -1.16,-3.61 -1.6,-4.97 -0.44,-1.37 -0.91,-2.79 -1.04,-3.17 l -0.24,-0.68 c 1.3,-0.95 3.16,-2.3 4.96,-3.6 1.8,-1.31 3.67,-2.67 4.15,-3.03 l 0.87,-0.66 c -1.1,-0.06 -3.87,-0.1 -6.85,-0.12 l -5.44,-0.04 c -0.3,-0.62 -0.69,-1.74 -1.05,-2.89 -0.36,-1.14 -1.13,-3.52 -1.71,-5.28 -0.58,-1.77 -1.1,-3.27 -1.15,-3.36 -0.06,-0.08 -0.18,0.03 -0.27,0.25 z"
       id="path3035-1"
       inkscape:connector-curvature="0"
       style="fill:#d5b048" />
  </g>
</svg>
