<svg xmlns="http://www.w3.org/2000/svg" width="512" height="512.39" viewBox="0 0 135.46666 135.56986"><path fill="#0344e0" d="M64.51.095c-1.178.093-2.9.407-4.138.754-1.17.331-2.824.925-3.689 1.323-.856.399-2.018.993-2.57 1.332l-1.008.602V8.94a34.182 34.182 0 0 1 2.824-1.96 25.177 25.177 0 0 1 2.824-1.441c.84-.356 2.196-.831 3.036-1.06.958-.254 2.459-.45 4.138-.517 1.628-.068 3.155-.026 4.037.127.771.127 2.044.424 2.824.653.78.229 2.145.755 3.027 1.179.89.424 2.324 1.272 3.18 1.89l1.57 1.129V4.106a30.187 30.187 0 0 0-3.334-1.84A28.425 28.425 0 0 0 73.797.985c-1-.288-2.358-.602-3.028-.704-.67-.102-1.89-.22-2.722-.263-.84-.042-2.425-.008-3.536.077zm-16.256 3.62-1.908 1.909.093 9.77c11.304.101 11.66.127 12.517.542.543.263 1.993 1.51 3.587 3.078l2.672 2.63 3.332-.01c4.224-4.146 5.818-5.528 6.26-5.749.737-.356 1.33-.39 6.614-.44l5.809-.052V5.615l-3.842-3.833-.101 9.685c-8.956.195-9.354.229-10.296.67-.695.314-1.798 1.246-3.536 2.976l-2.519 2.51c-2.976-2.984-4.29-4.206-4.85-4.63-.552-.424-1.324-.89-1.714-1.043-.483-.186-2.162-.305-5.35-.381l-4.648-.102-.212-9.668zm-2.222 20.1v4.18l2.213 2.222c.085 2.578.068 3.324.009 3.324-.051 0-3.146-3.036-6.86-6.75l-6.768-6.759h-5.453c17.843 17.818 23.092 22.99 23.168 22.99.085 0 .153-3.205.161-7.114V28.8l-2.645-2.62.118-2.621h4.936l3.943 3.935h5.657c-5.546-5.546-7.412-7.242-7.879-7.463-.729-.365-1.246-.398-5.698-.398h-4.902zm31.098-3.86c-.399.17-2.29 1.892-4.317 3.927L69.2 27.495l5.606-.009c3.13-2.976 4.223-3.892 4.444-3.943.22-.05 1.314-.076 2.425-.042l2.019.059.101 2.722-2.442 2.324.017 14.612c17.843-17.733 23.016-22.948 23.016-23.033 0-.085-1.196-.153-2.671-.153h-2.672L85.407 33.643v-3.426l2.23-2.222-.009-8.361c-8.845.008-9.93.067-10.498.322zM20.2 31.872l-.008 2.781 7.768 7.76c-3.867 0-4.766.093-5.3.314-.475.203-2.154 1.704-4.588 4.113l-3.842 3.808-7.064.144c-2.35 1.102-3.392 1.747-3.833 2.145-.45.39-1.154 1.204-1.56 1.798-.416.602-.959 1.628-1.205 2.298-.415 1.145-.45 1.586-.509 8.014L0 71.848l5.555.008 5.122-5.25 17.894.01c3.061 3.044 3.943 3.951 3.943 3.977 0 .025-4.3.067-9.549.101l-9.54.051c-1.408.831-2.79 2.129-3.986 3.41l-2.171 2.331H0l3.935 3.817 4.85.025c4.063-4.079 5.496-5.402 5.801-5.563.467-.246 2.019-.297 9.236-.297 4.774 0 8.684.068 8.675.153 0 .085-1.476 1.577-3.282 3.324l-3.273 3.163c-4.614.017-5.954-.025-5.954-.084 0-.051.865-.959 1.917-2.019l1.917-1.908H18.19l-7.59 7.658H27.96L40.223 72.56l-9.838-9.77c-15.994-.008-20.293.068-20.743.187-.542.144-1.441.84-3.129 2.426l-2.375 2.213c-.093-8.608-.084-8.803.374-9.778.262-.551.78-1.306 1.161-1.67.374-.365 1.094-.866 1.595-1.112.822-.407 1.263-.45 4.74-.5l3.842-.06 8.251-8.25 19.616-.01 4.24 4.453c4.147-.009 5.351-.076 5.351-.161s-1.798-1.942-3.994-4.13l-3.986-3.986H33.515L20.217 29.089Zm86.611 3.994-6.564 6.547-11.915-.017-8.022 8.184 5.402.118 4.342-4.452h19.581l8.184 8.277 10.295.009 3.537 3.612-.017 6.954-2.307 2.307-4.647-4.63-21.43.008-9.762 9.778L105.7 84.755h17.368l-7.675-7.666h-5.452l4.036 4.036h-6.258c-5.089-5.08-6.564-6.572-6.564-6.606 0-.025 4.02-.042 8.938-.042l8.939.008 5.851 5.826 4.842-.008 4.046-3.8-7.175-.017c-4.045-4.172-5.037-5.037-5.75-5.368l-1.009-.475h-18.784l4.045-4.036h17.869l6.36 6.487 6.14-6.385V56.43L124.68 45.448l-5.453-.008 5.25 5.24-5.047-.008c-6.072-6.097-7.776-7.65-8.277-7.878-.619-.289-1.306-.373-2.976-.373-1.196-.009-2.171-.077-2.171-.162 0-.076 1.721-1.874 3.833-3.977l3.841-3.833c0-3.986-.076-5.14-.152-5.14-.085 0-3.113 2.952-6.717 6.556zm-48.025-.356-2.043 2.162-.009 21.778 3.842 3.833-.009-23.99 2.044-1.917 8.565-.009 1.909 1.925c.008 18.36.076 23.686.16 23.686.085.009.993-.831 2.019-1.857l1.866-1.874V37.773l-4.546-4.452-11.762.017zm6.022 18.445v13.56l2.026 2.019 2.019-2.019v-27.12h-4.037zm-40.656-1.357-1.916 1.917h17.843L58.15 72.56 34.33 96.348l-.009 5.944h5.31l-10.457 10.49h5.656c8.353-8.386 10.6-10.49 10.83-10.49.347 0 .373.204.373 3.13v3.13l10.702 10.684v3.325l3.842 3.833v-8.87L49.874 106.83v-4.538h3.63l4.138 4.258 5.656-.017c-5.885-5.869-7.615-7.42-8.175-7.709-.899-.45-1.035-.458-8.837-.509-4.359-.025-7.92-.093-7.92-.152 0-.051 5.656-5.818 12.568-12.806 6.911-6.988 12.593-12.772 12.618-12.856.026-.077-4.833-5.02-10.804-10.974L41.893 50.689l-15.816-.009Zm56.87 9.023-10.94 10.94C89.86 92.336 95.558 98.12 95.507 98.171c-.06.05-3.647.11-7.98.144-7.717.051-7.896.06-8.88.509-.746.34-1.95 1.4-4.596 4.037-1.976 1.959-3.587 3.612-3.587 3.672 0 .05 1.255.076 2.782.042l2.773-.06 4.24-4.223h3.536v4.538l-10.702 10.693c-.008 6.556.042 8.506.102 8.566.068.059.975-.764 2.018-1.815l1.908-1.917.009-3.222 10.498-10.49c0-6.217.017-6.353.408-6.353.254 0 2.29 1.883 5.648 5.25l5.249 5.24c4.232.077 5.453.052 5.453 0 0-.059-2.34-2.442-5.199-5.291l-5.198-5.199h5.351v-5.944c-18.004-17.97-23.33-23.364-23.448-23.593-.195-.356.729-1.34 8.734-9.32l8.956-8.921h17.978l-3.841-3.834H91.97Zm-44.488 1.01c0 .025 2.23 2.272 4.952 4.986l4.961 4.944-26.264 26.205.11 5.35 31.7-31.665-9.896-9.871c-4.3 0-5.555.017-5.563.05zm50.238 4.935-4.995 4.995c24.483 24.466 31.666 31.496 31.75 31.412.094-.094.162-1.298.153-2.68v-2.527C93.336 78.53 87.425 72.585 87.425 72.509c-.009-.085 2.18-2.29 4.85-4.893 2.672-2.604 4.852-4.808 4.852-4.885 0-.085-1.213-.152-2.68-.152h-2.68zM58.396 83.958l-6.114 6.14 6.369 6.343 16.562.008 6.259-6.25c-9.388-9.48-12.187-12.254-12.263-12.27-.085-.018-.153 1.22-.161 2.747v2.764l6.767 6.75-2.417 2.426-13.127.009-2.426-2.434 6.776-6.75-.119-5.632zm6.42 35.278v12.5l-3.13-.008-4.952-4.935v5.444l3.333 3.324 13.526.009 3.537-3.537c0-4.147-.077-5.139-.204-5.139-.11 0-1.263 1.094-2.57 2.426l-2.374 2.417h-3.13v-25h-4.036z"/></svg>