<svg xmlns="http://www.w3.org/2000/svg" viewBox="0.0 0.0 123.34 174.29" width="266.11284121595423" height="375.78043788893535">
  <defs>
    <style>
      .cls-1 {
        fill: #be9f57;
      }

      .cls-1, .cls-2, .cls-3, .cls-4 {
        stroke-width: 0px;
      }

      .cls-1, .cls-3, .cls-4 {
        fill-rule: evenodd;
      }

      .cls-2, .cls-3 {
        fill: #fff;
      }

      .cls-4 {
        fill: #d52f3b;
      }
    </style>
  </defs>
  <path class="cls-1" d="M123.34,0H0v112.62c.1,34.02,27.65,61.57,61.67,61.67h0c34.01-.12,61.55-27.66,61.67-61.67V0Z"/>
  <polygon class="cls-3" points="61.67 169.54 64.58 169.47 67.42 169.25 70.26 168.9 73.09 168.41 75.8 167.77 78.49 166.99 81.12 166.06 83.74 165.06 86.22 163.93 88.71 162.65 91.05 161.31 93.39 159.81 95.59 158.19 97.79 156.55 99.85 154.71 101.84 152.86 103.75 150.87 105.52 148.81 107.23 146.61 108.79 144.42 110.28 142.07 111.7 139.73 112.9 137.25 114.12 134.7 115.1 132.13 116.03 129.51 116.74 126.81 117.38 124.05 117.94 121.28 118.3 118.44 118.51 115.54 118.58 112.55 118.58 23.42 4.75 23.42 4.75 112.55 4.83 115.54 5.04 118.44 5.39 121.28 5.89 124.05 6.52 126.81 7.31 129.51 8.23 132.13 9.23 134.7 10.36 137.25 11.64 139.73 13.06 142.07 14.55 144.42 16.11 146.61 17.81 148.81 19.58 150.87 21.51 152.86 23.49 154.71 25.55 156.55 27.68 158.19 29.94 159.81 32.22 161.31 34.64 162.65 37.12 163.93 39.6 165.06 42.16 166.06 44.85 166.99 47.55 167.77 50.25 168.41 53.09 168.9 55.93 169.25 58.76 169.47 61.67 169.54"/>
  <path class="cls-4" d="M72.39,165.42l.07-.07,2.55-.57,2.56-.71,2.48-.85,2.48-.99,2.34-1.06,2.35-1.2,2.27-1.28,2.18-1.43,2.15-1.53,1.97-1.64,1.97-1.7,1.84-1.77,1.92-1.79,1.71-1.97,1.56-2.06,1.49-2.13,1.42-2.13,1.35-2.27,1.13-2.35,1.14-2.35.92-2.48.86-2.48.78-2.55.56-2.55.5-2.7.35-2.62.21-2.77.08-2.84v-8.87h-43.19v61.74-.03ZM115.54,81.39V26.9h-43.15v54.5h43.15ZM50.17,26.9H7.79v54.5h42.38V26.9ZM7.79,103.68v8.87l.1,2.84.22,2.77.35,2.62.49,2.7.57,2.55.78,2.55.84,2.5.93,2.48,1.06,2.35,1.2,2.35,1.35,2.27,1.35,2.13,1.56,2.13,1.57,2.07,1.71,1.97,1.77,1.85,1.91,1.77,1.97,1.7,2.05,1.58,2.13,1.49,2.15,1.47,2.28,1.28,2.27,1.2,2.41,1.06,2.41.99,2.55.85,2.48.71,1.91.43v-61.53H7.79Z"/>
  <path class="cls-3" d="M61.17,120c15.44,0,27.97-12.51,27.97-27.95,0-15.44-12.51-27.97-27.95-27.97-15.42,0-27.93,12.47-27.97,27.89,0,15.45,12.5,27.99,27.95,28.03Z"/>
  <path class="cls-3" d="M102.41,61.88c-1.35-.6-2.94.01-3.54,1.37-.16.35-.23.73-.23,1.12l-.71-.14c-1.64-.29-2.33-3.26-1.64-6.07.29-1.49,1.97-1.64,2.28-3.62-.29-1.97-1.97-2.13-2.28-3.55-.71-2.96,0-5.83,1.64-6.18l.71-.14c-.04,1.46,1.11,2.69,2.57,2.73.41.01.82-.07,1.19-.24,2.05-.93,2.91-7.17-5.76-5.61l-5.17.99v-.02l-1.28.21c-3.94.71-5.04.71-5.04,5.12v13.41c0,4.4,1.13,4.4,4.93,5.04l1.39.28h0s5.17.92,5.17.92c8.66,1.64,7.81-4.61,5.76-5.61ZM93.03,63.09c-.51,0-1.02-.05-1.53-.14h0c-2.55-.36-3.12-1.14-3.12-2.76l-.03-5.68v-5.61c0-1.64.57-2.41,3.12-2.77.51-.09,1.04-.13,1.56-.14.35.71-1.2,6.81,1.57,8.52-2.77,1.7-1.21,7.89-1.57,8.58Z"/>
  <path class="cls-3" d="M32.51,42.72l-1.28-.21h0s-5.18-1-5.18-1c-8.65-1.56-7.79,4.68-5.82,5.61.35.17.75.25,1.14.25,1.5,0,2.7-1.23,2.69-2.73l.71.14c1.63.35,2.34,3.22,1.63,6.18-.36,1.42-1.98,1.58-2.34,3.55.36,1.98,1.98,2.13,2.34,3.62.71,2.84,0,5.82-1.63,6.1l-.71.14c0-.36-.08-.73-.23-1.06-.6-1.39-2.22-2.02-3.61-1.42-1.99,1-2.84,7.24,5.82,5.61l4.64-.82.54-.1h.04s.59-.13.59-.13l.12-.02.64-.14c3.72-.64,4.93-.64,4.93-5.04v-13.41c0-4.41-1.21-4.41-5.04-5.12ZM31.97,62.81l-.99.16c-.43.07-.88.11-1.32.12-.35-.7,1.2-6.89-1.57-8.58,2.77-1.71,1.21-7.81,1.57-8.52.52,0,1.04.06,1.56.14,2.48.35,3.06,1.13,3.06,2.77v5.61l.04,5.68c0,1.46-.46,2.24-2.35,2.63Z"/>
  <polygon class="cls-3" points="31.86 66.44 31.26 66.57 31.26 66.56 31.86 66.44"/>
  <path class="cls-3" d="M102.41,135.67c-1.33-.62-2.9-.04-3.52,1.29-.17.37-.26.78-.24,1.19l-.71-.14c-1.64-.35-2.35-3.26-1.64-6.17.29-1.42,1.97-1.57,2.28-3.55-.29-1.97-1.97-2.13-2.28-3.63-.71-2.96,0-5.82,1.64-6.17l.71-.14c-.03,1.5,1.16,2.74,2.65,2.77.38,0,.76-.06,1.11-.21,2.05-.99,2.91-7.24-5.76-5.61l-5.17.93h0s-1.28.29-1.28.29c-3.94.71-5.04.64-5.04,5.05v13.4c0,4.41,1.13,4.41,4.93,5.12l1.39.2h0s5.17.99,5.17.99c8.66,1.57,7.81-4.68,5.76-5.61ZM93.03,136.83c-.51,0-1.02-.06-1.53-.14h0c-2.55-.36-3.12-1.14-3.12-2.77l-.03-5.6v-5.68c0-1.64.57-2.41,3.12-2.77.51-.09,1.04-.14,1.56-.15.35.71-1.2,6.82,1.57,8.59-2.77,1.7-1.21,7.81-1.57,8.52Z"/>
  <path class="cls-3" d="M32.51,116.52l-1.28-.28h0s-5.18-.94-5.18-.94c-8.65-1.64-7.79,4.62-5.82,5.61.34.14.7.22,1.06.22,1.53,0,2.77-1.24,2.77-2.77l.71.14c1.63.35,2.34,3.21,1.63,6.17-.36,1.5-1.98,1.66-2.34,3.63.36,1.98,1.98,2.13,2.34,3.55.71,2.91,0,5.82-1.63,6.17l-.71.14c0-.39-.08-.78-.25-1.14-.62-1.36-2.23-1.96-3.59-1.34-1.99.93-2.84,7.18,5.82,5.61l4.71-.9h.07s.44-.09.44-.09h.05s1.3-.21,1.3-.21c3.72-.71,4.93-.71,4.93-5.12v-13.4c0-4.41-1.21-4.34-5.04-5.05ZM31.79,136.59l-.56.09-.47.07c-.35.05-.72.07-1.08.08-.35-.71,1.2-6.82-1.57-8.52,2.77-1.77,1.21-7.89,1.57-8.59.52,0,1.04.06,1.56.15,2.48.35,3.06,1.13,3.06,2.77v5.68l.04,5.6c0,1.52-.49,2.3-2.53,2.68Z"/>
  <path class="cls-2" d="M40.16,5.96c-.7-.66-1.56-1.15-2.48-1.42-.92-.25-1.88-.37-2.84-.35-.37-.06-.75-.08-1.13-.07h-7.52v.42h.71c.48-.06.96.12,1.27.49.3.51.43,1.11.35,1.71v9.69c.07.56-.02,1.13-.28,1.64-.28.47-.81.72-1.35.64h-.71v.42h8.01v-.42h-.71c-.55.01-1.07-.22-1.42-.64-.31-.54-.43-1.16-.35-1.77v-3.94h3.12v-.03h.49c1.51.11,3-.29,4.26-1.13.98-.66,1.57-1.77,1.56-2.96,0-.86-.36-1.68-.99-2.27ZM36.89,10.62c-.61.44-1.32.73-2.06.85v.03h-.55c-.79,0-1.71.08-2.56,0v-6.39c1.04-.09,2.09-.04,3.12.15v-.03c1.02.13,1.95.64,2.62,1.42.34.53.51,1.15.49,1.77.02.86-.38,1.68-1.06,2.2Z"/>
  <path class="cls-2" d="M75.72,6.6c0-.93-.21-1.5-.63-1.71-.74-.3-1.55-.42-2.35-.35v-.42h8.65v.42c-.82-.07-1.65.06-2.4.38-.41.57-.59,1.27-.5,1.97v9.44c-.07.68.11,1.36.5,1.91.77.3,1.58.45,2.4.43v.42h-8.65v-.42c.83.02,1.65-.13,2.41-.43.45-.53.66-1.22.56-1.91V7.81l-9.23,8.87c-.01.43.04.86.15,1.28.07.21.35.35.71.49.64.17,1.31.25,1.97.22v.42h-8.51v-.42c.8.01,1.6-.14,2.35-.43.35-.28.49-.92.49-1.91V6.9c0-.99-.14-1.63-.49-1.91-.74-.33-1.54-.48-2.35-.42v-.44h8.52v.42c-.79-.06-1.58.07-2.31.38-.35.29-.5.93-.5,1.91v8.63l9.2-8.87Z"/>
  <path class="cls-2" d="M87.15,4.54v-.42h8.01v.42h-.71c-.6-.05-1.19.16-1.63.56-.3.49-.42,1.07-.35,1.64v7.31c.05.95-.13,1.89-.5,2.76-.31.75-.86,1.37-1.56,1.77-.81.56-1.79.84-2.77.79-.69.04-1.38-.13-1.97-.5-.44-.22-.74-.65-.8-1.13,0-.32.13-.62.35-.85.31-.23.68-.36,1.06-.35.29-.02.57.08.78.28.38.34.7.75.93,1.21.22.42.42.56.78.56.28.02.56-.12.71-.35.28-.36.4-.82.35-1.27V6.74c.03-.5-.04-1.01-.21-1.49-.15-.19-.34-.34-.57-.42-.4-.2-.84-.3-1.28-.29h-.63Z"/>
  <path class="cls-2" d="M23.84,3.83l.5,5.32h-.43c-.46-1.42-1.35-2.66-2.55-3.55-1.19-.71-2.56-1.06-3.94-.99-1.2-.02-2.39.22-3.48.71-1.02.56-1.85,1.4-2.4,2.41-.59,1.28-.87,2.68-.82,4.08-.04,1.22.26,2.42.86,3.48.56,1.02,1.43,1.84,2.48,2.35,1.21.52,2.51.79,3.82.78,1.12.02,2.24-.2,3.27-.64,1.09-.55,2.08-1.3,2.91-2.2l.49.14c-.83,1.15-1.93,2.07-3.19,2.7-1.42.66-2.98.98-4.54.93-4.53,0-9.58-2.48-9.58-7.53,0-3.19,2.28-5.75,5.05-7.02,1.55-.68,3.23-1.02,4.93-.99,1.41-.02,2.81.25,4.11.78.25.11.51.18.78.22.25,0,.5-.07.71-.22.23-.21.41-.48.5-.78h.53Z"/>
  <path class="cls-1" d="M61.17,115.81c13.13,0,23.77-10.64,23.77-23.77,0-13.13-10.64-23.77-23.77-23.77-13.1,0-23.74,10.6-23.77,23.7,0,13.14,10.63,23.81,23.77,23.84Z"/>
  <path class="cls-2" d="M57.45,12.56c-.72-.71-1.64-1.17-2.63-1.34-1-.19-2.06-.31-3.09-.31-.68-.06-1.37-.08-2.06-.07h-1.56v-5.74h3.62c2.41.12,4.04.39,4.68,2.96h.49l-.21-3.94h-14.06v.44c.55.04,1.1.11,1.64.21.3.09.56.3.71.57.17.5.24,1.03.21,1.56v9.41c.08.68-.1,1.36-.49,1.91-.72.3-1.49.45-2.27.43v.42h9.29c2.41-.07,4.15-.44,5.14-1.22.97-.68,1.55-1.78,1.57-2.96,0-.88-.35-1.73-.99-2.35ZM55.24,15.86s-.07.19-.24.46c-.21.36-.49.66-.84.9-.03.02-.05.05-.08.07-.04.03-.1.06-.14.09-.04.02-.07.05-.1.07-.02.01-.04.02-.06.03-1.06.58-3.09.94-5.65.76v-6.41c.25,0,.58,0,.96,0h.53c.71-.03,1.43.02,2.13.15.34.06.67.16,1.01.29.46.15.83.32,1.09.47.46.19.85.51,1.12.91,0,.01.02.03.03.04.02.03.03.06.05.1.04.07.08.14.12.21.03.07.06.14.09.21.02.05.03.09.05.14.02.08.04.15.05.22,0,.05.02.09.02.14.02.13.02.24.03.33,0,.2-.02.49-.14.83Z"/>
  <path class="cls-2" d="M113.78,18.17c-.67-.53-1.2-1.2-1.57-1.97l-6.9-12.35h-.5l-.56.99-6.37,11.28c-.41.83-.99,1.55-1.71,2.13-.49.23-1.02.38-1.56.43v.42h6.18v-.42c-.65,0-1.3-.11-1.91-.35-.24-.09-.4-.32-.42-.57.09-.47.26-.93.49-1.35l1.35-2.34h7.7l1.23,2.13c.34.46.55.99.64,1.56,0,.22-.15.42-.43.64-.53.17-1.07.27-1.63.29v.42h7.81v-.42c-.65-.02-1.28-.19-1.84-.5ZM104.25,7.23l3.38,5.99h-6.78l3.41-5.91v-.08Z"/>
  <path class="cls-3" d="M71.17,84.31c.38-.87.76-1.89,1.07-3.04.38-1.4.59-2.69.69-3.78.57-.05,1.2-.07,1.86-.07.86,0,1.66.06,2.38.15,1.1,1.31,2.36,3.03,3.52,5.18,1.11,2.08,1.84,4.01,2.32,5.6-.19.78-.46,1.69-.86,2.66-.38.92-.8,1.71-1.2,2.37-1.69-.16-3.37-.33-5.06-.49-.6-2.13-1.36-3.63-1.91-4.57-.88-1.5-2.17-3.18-2.54-3.66-.11-.15-.21-.27-.28-.35Z"/>
  <path class="cls-3" d="M61.53,84.8c1.2-.22,2.62-.39,4.22-.42,1.74-.03,3.29.11,4.57.3.89.95,2,2.33,2.97,4.16.95,1.79,1.46,3.44,1.75,4.69-.58,1.22-1.31,2.58-2.23,3.99-.84,1.3-1.69,2.43-2.5,3.4-1.43.22-3.16.37-5.11.31-1.62-.05-3.07-.23-4.31-.46-.77-1.22-1.56-2.58-2.34-4.05-.78-1.48-1.44-2.91-2.01-4.25.55-1.34,1.34-2.94,2.49-4.61.84-1.22,1.69-2.23,2.48-3.06Z"/>
  <path class="cls-3" d="M48.3,92.68c-.63-1.01-1.26-2.1-1.88-3.27-.71-1.33-1.32-2.61-1.85-3.82.67-1.54,1.55-3.27,2.72-5.08.75-1.16,1.52-2.19,2.25-3.1,1.02-.2,2.13-.37,3.33-.49,1.77-.17,3.4-.2,4.83-.14.51,1.03,1.03,2.19,1.51,3.46.58,1.53,1.01,2.97,1.33,4.28-.9,1-1.91,2.27-2.86,3.84-.81,1.33-1.4,2.58-1.85,3.68-1.13.14-2.3.26-3.5.36-1.38.12-2.72.21-4.03.28Z"/>
  <path class="cls-3" d="M38.37,91.95c-.02-1.11.04-2.44.29-3.92.23-1.41.57-2.63.92-3.63.21.61.42,1.23.63,1.84-.31.63-.61,1.33-.89,2.11-.47,1.32-.76,2.54-.94,3.6Z"/>
  <path class="cls-2" d="M64.06,72.03c-.98.37-2.12.89-3.33,1.62-1.27.77-2.3,1.57-3.1,2.29-1.38-.02-2.91.02-4.54.17-1.33.12-2.56.3-3.7.5l-1.75-1.72v-.02s0,0,0,0l.63-1.59c1.44-1.01,3.68-2.33,6.66-3.19,3.42-.99,6.37-.97,8.23-.81.2.41.38.89.56,1.42.16.48.28.94.35,1.35Z"/>
  <path class="cls-2" d="M64.93,71.95c-.06-.38-.14-.81-.29-1.28-.15-.49-.32-.92-.49-1.27,1.82.25,4.53.85,7.48,2.38,2.52,1.31,4.35,2.85,5.56,4.05-.07.28-.14.57-.22.85l-4.33-.1c-.89-.84-2.08-1.83-3.62-2.75-1.52-.91-2.94-1.49-4.09-1.88Z"/>
  <path class="cls-2" d="M83.96,94.21c.06-.64.13-1.61.11-2.78-.02-.84-.08-1.59-.15-2.23h-.14c-.25.8-.57,1.68-1,2.62-.38.83-.78,1.56-1.16,2.21.13,1.17.19,2.61.03,4.26-.2,2.02-.66,3.7-1.11,4.96l.35.35c.4-.67.84-1.49,1.26-2.45.52-1.18.84-2.18,1.04-2.86.24-.83.6-2.26.78-4.08Z"/>
  <path class="cls-2" d="M54.91,106.76c.87-.44,1.93-1.08,3.02-2,1.28-1.08,2.19-2.18,2.81-3.07,1.46.2,3.11.35,4.94.36,1.65.01,3.16-.08,4.5-.23.48.81.98,1.76,1.45,2.83.41.94.72,1.84.97,2.65-.69.95-1.62,2.06-2.84,3.17-1.14,1.04-2.24,1.83-3.19,2.41-1.16.2-2.58.36-4.19.35-1.46-.01-2.75-.16-3.83-.35-.67-.76-1.43-1.75-2.15-2.97-.68-1.16-1.15-2.25-1.48-3.17Z"/>
  <path class="cls-2" d="M68.01,113.85l-.22-.64c.81-.55,1.7-1.23,2.62-2.09,1.19-1.11,2.11-2.22,2.8-3.19.87-.4,1.8-.87,2.75-1.42,1.51-.86,2.81-1.76,3.92-2.62.17.16.34.33.5.49-.99,1.52-2.68,3.74-5.35,5.78-2.69,2.06-5.29,3.12-7.03,3.68Z"/>
  <path class="cls-2" d="M43.07,105.96l.15-2.84c.48-.03,1-.09,1.55-.19.66-.11,1.25-.26,1.78-.42.78.79,1.93,1.79,3.49,2.68,1.5.85,2.89,1.31,3.94,1.58.34.99.84,2.15,1.56,3.4.64,1.11,1.31,2.02,1.92,2.76-.55.23-1.24.46-2.06.62-.59.11-1.13.16-1.6.17-1.75-.61-4.22-1.7-6.73-3.69-1.77-1.4-3.07-2.86-3.99-4.07Z"/>
  <path class="cls-2" d="M42.65,102.26c.49.03,1.13.02,1.86-.12.69-.13,1.26-.34,1.68-.53-.1-1.2-.11-2.82.25-4.68.29-1.52.74-2.78,1.17-3.75-.68-1.08-1.37-2.25-2.05-3.52-.64-1.19-1.2-2.33-1.7-3.43-.95.16-1.89.33-2.84.49-.5,1.01-1,2.22-1.42,3.63-.65,2.19-.87,4.15-.93,5.69.29.9.77,2.08,1.57,3.34.81,1.28,1.7,2.22,2.4,2.87Z"/>
</svg>