<?xml version="1.0" encoding="utf-8"?>
<!-- Generator: Adobe Illustrator 13.0.2, SVG Export Plug-In . SVG Version: 6.00 Build 14948)  -->
<!DOCTYPE svg PUBLIC "-//W3C//DTD SVG 1.0//EN" "http://www.w3.org/TR/2001/REC-SVG-20010904/DTD/svg10.dtd">
<svg version="1.0" id="Ebene_1" xmlns="http://www.w3.org/2000/svg" xmlns:xlink="http://www.w3.org/1999/xlink" x="0px" y="0px"
	 width="526.244px" height="346.503px" viewBox="0 0 526.244 346.503" enable-background="new 0 0 526.244 346.503"
	 xml:space="preserve">
<polygon fill-rule="evenodd" clip-rule="evenodd" points="331.96,240.958 329.095,246.537 444.618,246.308 439.532,256.972 
	359.016,346.503 365.139,346.503 444.384,258.589 452.297,241.011 331.96,240.958 "/>
<polygon fill-rule="evenodd" clip-rule="evenodd" points="320.2,267.648 322.269,262.96 413.016,262.96 337.761,346.392 
	332.215,346.392 402.727,267.648 320.2,267.648 "/>
<path fill-rule="evenodd" clip-rule="evenodd" fill="#005EA8" d="M285.173,83.523c-18.155,44.937-69.224,44.256-69.224,44.256
	H93.164l6.583-14.75h113.254C213.001,113.029,262.477,113.932,285.173,83.523L285.173,83.523L285.173,83.523z"/>
<path fill-rule="evenodd" clip-rule="evenodd" fill="#005EA8" d="M275.071,106.218c-18.155,44.938-69.223,44.254-69.223,44.254
	H83.063l6.583-14.75H202.9C202.9,135.723,252.376,136.628,275.071,106.218L275.071,106.218L275.071,106.218z"/>
<path fill-rule="evenodd" clip-rule="evenodd" fill="#005EA8" d="M312.976,66.953c18.152-44.937,69.223-44.257,69.223-44.257
	h126.413l-6.583,14.754h-116.88C385.148,37.449,335.669,36.541,312.976,66.953L312.976,66.953L312.976,66.953z"/>
<path fill-rule="evenodd" clip-rule="evenodd" fill="#005EA8" d="M323.074,44.258C341.232-0.679,392.297,0,392.297,0h126.41
	l-6.577,14.754H395.244C395.244,14.754,345.771,13.846,323.074,44.258L323.074,44.258L323.074,44.258z"/>
<path fill-rule="evenodd" clip-rule="evenodd" fill="#FFFFFF" d="M264.976,128.914c-18.157,44.937-69.227,44.254-69.227,44.254
	H72.97l6.58-14.751H192.8C192.8,158.417,242.276,159.326,264.976,128.914L264.976,128.914L264.976,128.914z"/>
<path fill-rule="evenodd" clip-rule="evenodd" fill="#FFFFFF" d="M302.877,89.65c18.155-44.937,69.22-44.26,69.22-44.26h126.416
	l-6.583,14.754H375.05C375.05,60.144,325.57,59.236,302.877,89.65L302.877,89.65L302.877,89.65z"/>
<path fill-rule="evenodd" clip-rule="evenodd" fill="#DC3417" d="M254.874,151.609c-18.158,44.941-69.223,44.268-69.223,44.268
	H62.868l6.584-14.766h113.246C182.698,181.111,232.178,182.025,254.874,151.609L254.874,151.609L254.874,151.609z"/>
<path fill-rule="evenodd" clip-rule="evenodd" fill="#DC3417" d="M244.774,174.303c-18.16,44.946-69.224,44.261-69.224,44.261
	H52.768l6.584-14.748H172.6C172.6,203.816,222.076,204.724,244.774,174.303L244.774,174.303L244.774,174.303z"/>
<path fill-rule="evenodd" clip-rule="evenodd" fill="#DC3417" d="M282.677,135.04c18.155-44.938,69.223-44.254,69.223-44.254
	h126.413l-6.58,14.75H354.85C354.85,105.535,305.37,104.631,282.677,135.04L282.677,135.04L282.677,135.04z"/>
<path fill-rule="evenodd" clip-rule="evenodd" fill="#DC3417" d="M292.778,112.345c18.155-44.938,69.217-44.254,69.217-44.254
	h126.413l-6.577,14.75H364.948C364.948,82.84,315.472,81.931,292.778,112.345L292.778,112.345L292.778,112.345z"/>
<polygon fill-rule="evenodd" clip-rule="evenodd" points="57.543,309.748 48.463,309.748 84.425,229.005 48.119,229.005 0,337.035 
	81.702,337.035 129.819,229.005 93.507,229.005 57.543,309.748 57.543,309.748 "/>
<path fill-rule="evenodd" clip-rule="evenodd" d="M337.942,147.296h27.231l13.052-29.956H340.89
	c-83.745,0-79.206,111.665-165.454,111.665h-36.539L90.782,337.035h36.086c93.961,0,73.532-108.029,160.235-108.029l14.522-33.117
	c-78.073,0-88.967,113.859-156.148,113.859h-8.042l5.247-11.783h15.958c58.103,0,73.537-112.541,153.88-112.541h35.631
	l12.483-27.687h-37.219c-38.625,0-60.315,22.291-78.378,46.789C265.14,176.189,287.268,147.296,337.942,147.296L337.942,147.296
	L337.942,147.296L337.942,147.296z M170.896,267.689h-14.73l4.085-9.182h8.832c33.415,0,51.025-19.459,67.482-42.088
	C218.279,242.611,201.678,267.689,170.896,267.689L170.896,267.689L170.896,267.689z"/>
<path fill-rule="evenodd" clip-rule="evenodd" d="M386.282,117.34l-13.313,29.94h45.354l-4.632,10.456h-45.281l-30.243,67.642
	h79.887l48.114-108.038H386.282L386.282,117.34L386.282,117.34L386.282,117.34z M385.77,195.941l4.714-10.564h10.893l-4.711,10.564
	H385.77L385.77,195.941L385.77,195.941z"/>
<polygon fill-rule="evenodd" clip-rule="evenodd" fill="#FFDD00" points="151.562,140.39 159.091,158.847 178.972,160.301 
	163.743,173.168 168.501,192.525 151.562,182.019 134.622,192.525 139.38,173.168 124.151,160.301 144.032,158.847 151.562,140.39 
	"/>
<polygon fill-rule="evenodd" clip-rule="evenodd" fill="#DC3417" points="151.563,146.152 157.553,161.198 173.713,162.244 
	161.254,172.593 165.253,188.283 151.563,179.628 137.875,188.283 141.873,172.593 129.415,162.244 145.575,161.198 
	151.563,146.152 "/>
<polygon fill-rule="evenodd" clip-rule="evenodd" fill="#FFDD00" points="403.866,26.715 411.393,45.17 431.276,46.626 
	416.045,59.494 420.806,78.852 403.866,68.343 386.924,78.852 391.682,59.494 376.453,46.626 396.337,45.17 403.866,26.715 "/>
<polygon fill-rule="evenodd" clip-rule="evenodd" fill="#DC3417" points="403.866,32.478 409.852,47.523 426.018,48.569 
	413.555,58.917 417.557,74.608 403.866,65.955 390.176,74.608 394.178,58.917 381.715,48.569 397.878,47.523 403.866,32.478 "/>
<polygon fill-rule="evenodd" clip-rule="evenodd" points="319.344,267.648 321.412,262.96 412.159,262.96 336.904,346.392 
	331.358,346.392 401.87,267.648 319.344,267.648 "/>
<path fill-rule="evenodd" clip-rule="evenodd" d="M479.492,346.503l29.024-65.408h-52.623l5.61-12.68h52.655l12.085-27.211h-79.89
	l-46.752,105.299H479.492L479.492,346.503L479.492,346.503L479.492,346.503z M449.404,246.636h68.953l-7.248,16.348h-52.623
	l-10.509,23.672h52.623l-24.132,54.381h-68.994L449.404,246.636L449.404,246.636L449.404,246.636z"/>
<polygon fill-rule="evenodd" clip-rule="evenodd" points="465.245,319.304 438.913,319.304 444.356,307.046 470.68,307.046 
	465.245,319.304 468.301,324.718 478.563,301.568 441.339,301.568 431.035,324.718 468.301,324.718 465.245,319.304 
	465.245,319.304 "/>
</svg>
