<?xml version="1.0" encoding="utf-8"?>
<!-- Generator: Adobe Illustrator 15.0.0, SVG Export Plug-In . SVG Version: 6.00 Build 0)  -->
<!DOCTYPE svg PUBLIC "-//W3C//DTD SVG 1.1//EN" "http://www.w3.org/Graphics/SVG/1.1/DTD/svg11.dtd">
<svg version="1.1" id="Слой_1" xmlns="http://www.w3.org/2000/svg" xmlns:xlink="http://www.w3.org/1999/xlink" x="0px" y="0px"
	 width="525px" height="430px" viewBox="0 0 525 430" enable-background="new 0 0 525 430" xml:space="preserve">
<g>
	<path fill="#FFFFFF" d="M494.104,406.362l37.99-4.658c0,0-69.832-111.105-70.686-112.465c8.568-23.789,12.947-48.748,12.947-74.23
		c0-120.757-98.239-218.996-218.993-218.996l-10.951,0.12l-7.967,0.085l16.928,26.975c-3.792,0.036-7.57,0.182-11.307,0.443
		L226.108-1.787L223.29-1.44l-35.222,4.318l16.937,26.981c-3.282,0.888-6.528,1.865-9.742,2.923L177.315,4.2l-2.816,0.348
		L139.28,8.873l23.806,37.911c-2.869,1.582-5.69,3.234-8.474,4.957l-26.083-41.545l-2.818,0.345l-35.229,4.321l36.292,57.79
		c-2.473,2.238-4.892,4.535-7.246,6.896L79.735,16.19l-2.811,0.348l-35.229,4.317l54.583,86.917
		c-2.028,2.997-3.959,6.062-5.817,9.175l-0.658-1.041l-58.86-93.725l-2.819,0.346L-7.094,26.85c0,0,62.32,99.239,62.32,99.248
		c-12.478,28.038-18.853,57.928-18.853,88.909c0,120.738,98.241,218.98,218.988,218.98c8.221,0,16.546-0.471,24.742-1.381
		l0.179-0.016l7.466-1.447l-15.244-24.275l-0.555-0.752c3.703-0.313,7.371-0.73,11.003-1.26l16.028,25.467l38.308-4.705
		l-18.591-29.504c2.982-1.033,5.919-2.146,8.829-3.33l19.81,31.605l38.436-4.721l-27.057-43.023
		c2.775-1.785,5.513-3.643,8.188-5.566l29.742,47.26l37.698-4.631l-41.055-65.395c2.35-2.426,4.64-4.91,6.846-7.453l44.896,71.527
		l38.527-4.723l-61.512-97.635c1.836-3.236,3.587-6.525,5.25-9.873L494.104,406.362z"/>
	<g>
		
			<radialGradient id="SVGID_1_" cx="-3415.8926" cy="3319.5059" r="198.8367" gradientTransform="matrix(0.6824 0 0 -0.6824 2586.6113 2480.0801)" gradientUnits="userSpaceOnUse">
			<stop  offset="0" style="stop-color:#FFFFFF"/>
			<stop  offset="0.202" style="stop-color:#FDFDFD"/>
			<stop  offset="0.3768" style="stop-color:#F1F1F1"/>
			<stop  offset="0.5414" style="stop-color:#DFDFDF"/>
			<stop  offset="0.6999" style="stop-color:#C7C6C7"/>
			<stop  offset="0.8526" style="stop-color:#A6A6A6"/>
			<stop  offset="1" style="stop-color:#808081"/>
		</radialGradient>
		<path fill="url(#SVGID_1_)" d="M255.888,350.913c74.96,0,135.538-61.063,135.538-136.027c0-75.039-60.578-136.1-135.538-136.1
			c-75.042,0-136.101,61.061-136.101,136.1C119.787,289.851,180.846,350.913,255.888,350.913L255.888,350.913z"/>
		<path fill="#010202" d="M119.514,214.886c0,75.158,61.175,136.299,136.374,136.299c74.894,0,135.813-61.141,135.813-136.299
			c0-75.193-60.921-136.376-135.813-136.376C180.688,78.509,119.514,139.692,119.514,214.886z M120.058,214.886
			c0-74.891,60.935-135.828,135.83-135.828c74.587,0,135.275,60.937,135.275,135.828c0,74.861-60.688,135.762-135.275,135.762
			C180.991,350.647,120.058,289.747,120.058,214.886z"/>
		<g>
			<path fill="#010202" d="M205.672,88.667l27.961,14.462l-22.819,39.852l-42.902,10.844l-10.362-32.06l0,0
				C171.042,107.304,186.547,95.898,205.672,88.667L205.672,88.667z"/>
			<path fill="#010202" d="M358.329,124.817l-3.697,29.491l-44.994-11.326l-24.259-34.148l25.86-18.155l0,0
				C330.367,98.951,344.829,108.833,358.329,124.817L358.329,124.817z"/>
			<path fill="#010202" d="M369.172,289.366l-31.575,5.703l1.059-49.174l27.385-28.922l23.298,21.209l0,0
				C386.206,256.753,378.972,274.341,369.172,289.366L369.172,289.366z"/>
			<path fill="#010202" d="M234.674,349.394l-16.549-27.4l40.814-20.164l41.383,13.902l-8.769,30.521l0,0
				c-11.403,3.141-23.777,4.66-35.667,4.66C249.133,350.913,241.348,350.437,234.674,349.394L234.674,349.394z"/>
			<path fill="#010202" d="M121.311,234.577l23.297-24.908l27.399,32.141l1.607,45.469H140.99l-0.479-0.484l0,0
				C130.627,270.724,124.44,253.698,121.311,234.577L121.311,234.577z"/>
			<g>
				<path fill="#010202" d="M231.059,176.565l53.268,2.09l14.468,51.742l-43.467,29.969l-42.429-33.1L231.059,176.565
					L231.059,176.565z"/>
				<path fill="#010202" d="M144.101,209.657l1.021,0.014c0.552-31.127,16.066-51.088,23.054-55.41l-0.53-0.869
					C160.5,157.813,144.668,178.114,144.101,209.657z"/>
				<path fill="#010202" d="M210.395,143.267c4.124,6.096,20.072,33.283,20.224,33.551l0.88-0.51
					c-0.161-0.273-16.124-27.484-20.263-33.611L210.395,143.267z"/>
				<path fill="#010202" d="M284.063,178.216l0.523,0.875c3.027-1.793,23.582-29.949,25.535-35.955l-0.971-0.309
					C307.122,149.095,286.406,176.833,284.063,178.216z"/>
				<path fill="#010202" d="M171.906,241.308l0.197,0.994c4.813-0.963,35.711-10.846,41.088-14.627l-0.583-0.828
					C207.617,230.354,177.032,240.286,171.906,241.308z"/>
				<path fill="#010202" d="M298.637,230.876c8.168,2.697,35.635,12.463,39.712,15.436l0.59-0.816
					c-4.4-3.215-33.054-13.291-39.987-15.58L298.637,230.876z"/>
				<path fill="#010202" d="M254.826,260.437c0.604,4.508,3.609,37.396,3.609,41.393h1.011c0-4.354-3.125-37.857-3.619-41.525
					L254.826,260.437z"/>
				<path fill="#010202" d="M173.129,287.427c2.681,8.629,35.875,34.521,44.962,35.074l0.064-1.016
					c-8.902-0.535-41.434-25.906-44.063-34.355L173.129,287.427z"/>
				<path fill="#010202" d="M240.225,101.923l-6.592,0.699v1.013l6.725-0.711c11.319-1.521,32.386-4.356,44.686,6.293l0.662-0.771
					C273.057,97.506,251.697,100.38,240.225,101.923z"/>
				<path fill="#010202" d="M354.272,154.663c6.42,6.424,12.842,41.926,11.26,62.273l1.015,0.082
					c1.463-18.875-4.481-55.992-11.558-63.068L354.272,154.663z"/>
				<path fill="#010202" d="M299.696,317.892l0.282,0.963c11.752-3.572,32.726-16.52,38.021-23.469l-0.807-0.613
					C331.988,301.604,311.307,314.356,299.696,317.892z"/>
			</g>
		</g>
	</g>
	<g>
		<path fill="#010202" d="M119.187,215.05c0,75.189,61.211,136.367,136.456,136.367c74.936,0,135.89-61.178,135.89-136.367
			c0-75.252-60.954-136.465-135.89-136.465C180.397,78.584,119.187,139.798,119.187,215.05z M119.738,215.05
			c0-74.951,60.968-135.917,135.904-135.917c74.629,0,135.343,60.965,135.343,135.917c0,74.889-60.714,135.824-135.343,135.824
			C180.706,350.872,119.738,289.938,119.738,215.05z"/>
	</g>
	<path fill="none" d="M119.592,220.149c1.86,49.834,30.662,92.928,72.27,115.084L119.592,220.149z"/>
	<g>
		<path fill="#E52629" d="M230.782,348.825L124.284,179.212c-3.123,11.426-4.828,23.439-4.828,35.838c0,1.709,0.075,3.402,0.136,5.1
			l72.27,115.084C203.882,341.638,216.97,346.269,230.782,348.825z"/>
		<path fill="#E52629" d="M233.877,234.919l67.787,108.174c8.266-3,16.154-6.779,23.589-11.256L264.3,234.919H233.877z"/>
		<path fill="#E52629" d="M286.512,234.948l54.165,86.063c6.809-5.488,13.06-11.637,18.682-18.334l-42.553-67.758L286.512,234.948z"
			/>
		<path fill="#E52629" d="M338.895,234.919l32.263,51.398c5.354-8.727,9.739-18.1,13.043-27.967l-14.759-23.432H338.895
			L338.895,234.919z"/>
		<path fill="#E52629" d="M181.371,234.888l73.072,116.221c0.407,0,0.798,0.031,1.198,0.031c9.479,0,18.713-0.979,27.631-2.836
			L211.79,234.888H181.371z"/>
	</g>
	<path fill="#010202" d="M117.183,215.05c0,76.301,62.115,138.373,138.459,138.373c76.046,0,137.901-62.072,137.901-138.373
		c0-76.359-61.855-138.467-137.901-138.467C179.298,76.583,117.183,138.69,117.183,215.05z M121.743,215.05
		c0-73.844,60.065-133.907,133.898-133.907c73.527,0,133.338,60.063,133.338,133.907c0,73.779-59.811,133.807-133.338,133.807
		C181.809,348.856,121.743,288.827,121.743,215.05z"/>
	<path fill="#010202" d="M255.362,402.612c103.607,0,187.604-83.996,187.604-187.604c0-103.617-83.995-187.61-187.604-187.61
		c-103.606,0-187.602,83.993-187.602,187.61C67.761,318.616,151.756,402.612,255.362,402.612z M112.518,215.007
		c0-78.893,63.957-142.843,142.846-142.843c78.895,0,142.852,63.95,142.852,142.843c0,78.887-63.957,142.838-142.852,142.838
		C176.475,357.845,112.518,293.894,112.518,215.007z"/>
	<path fill="#FFFFFF" d="M72.45,215.007c0,100.857,82.058,182.908,182.912,182.908c100.863,0,182.912-82.051,182.912-182.908
		c0-100.862-82.049-182.917-182.912-182.917C154.508,32.089,72.45,114.145,72.45,215.007z M76.273,215.007
		c0-98.75,80.335-179.091,179.089-179.091c98.759,0,179.086,80.34,179.086,179.091c0,98.74-80.327,179.074-179.086,179.074
		C156.608,394.081,76.273,313.747,76.273,215.007z"/>
	<polygon fill="#FFFFFF" points="93.844,178.692 99.275,186.597 108.465,183.864 102.637,191.464 108.074,199.356 99.033,196.163 
		93.206,203.774 93.452,194.194 84.412,191.007 93.607,188.284 	"/>
	<polygon fill="#FFFFFF" points="93.206,226.228 98.643,234.126 107.825,231.39 101.997,239.007 107.442,246.896 98.404,243.704 
		92.576,251.31 92.821,241.718 83.783,238.542 92.979,235.813 	"/>
	<polygon fill="#FFFFFF" points="416.886,178.692 411.474,186.597 402.271,183.864 408.11,191.464 402.663,199.356 411.714,196.163 
		417.529,203.774 417.29,194.194 426.318,191.007 417.126,188.284 	"/>
	<polygon fill="#FFFFFF" points="417.529,226.228 412.098,234.126 402.903,231.39 408.741,239.007 403.299,246.896 412.338,243.704 
		418.153,251.31 417.919,241.718 426.953,238.542 417.761,235.813 	"/>
	<g>
		<path fill="#E52629" d="M60.257,125.682c-12.469,27.196-19.416,57.454-19.416,89.325c0,118.473,96.047,214.514,214.521,214.514
			c8.199,0,16.291-0.465,24.251-1.35l0.886-0.174l-11.697-18.611l-1.693-2.328c-3.884,0.236-7.803,0.35-11.745,0.35
			c-106.268,0-192.414-86.135-192.414-192.398c0-34.26,8.95-66.416,24.635-94.271l-1.545-2.435l-57.365-91.34L0.428,30.426
			l58.553,93.243L60.257,125.682z"/>
		<path fill="#E52629" d="M456.518,289.724c8.636-23.275,13.379-48.445,13.379-74.717c0-118.478-96.055-214.528-214.533-214.528
			l-10.899,0.12l13.094,20.849l0.816,1.156c104.886,1.614,189.405,87.132,189.405,192.405c0,28.941-6.385,56.393-17.842,81.02
			l0.688,1.043l65.747,104.516l28.204-3.463l-67.391-107.197L456.518,289.724z"/>
		<path fill="#E52629" d="M116.027,82.385L77.466,20.967l-28.252,3.467l49.529,78.871C104.016,95.926,109.791,88.94,116.027,82.385z
			"/>
		<path fill="#E52629" d="M150.553,53.676L126.255,14.97l-28.253,3.468l31.874,50.766C136.409,63.579,143.313,58.389,150.553,53.676
			z"/>
		<path fill="#E52629" d="M190.614,33.789L175.045,8.985l-28.244,3.464l19.95,31.776C174.425,40.233,182.378,36.732,190.614,33.789z
			"/>
		<path fill="#E52629" d="M236.708,23.505L223.836,2.99L195.59,6.457l13.651,21.732C218.173,25.996,227.337,24.4,236.708,23.505z"/>
		<path fill="#E52629" d="M332.005,391.501l17.612,28.102l28.632-3.506l-23.008-36.596
			C347.813,384.013,340.042,388.017,332.005,391.501z"/>
		<path fill="#E52629" d="M370.822,368.921l28.099,44.641l27.915-3.432l-36.47-58.066
			C384.246,358.104,377.72,363.743,370.822,368.921z"/>
		<path fill="#E52629" d="M403.486,337.798L447.3,407.61l28.728-3.521l-56.186-89.182
			C414.946,322.94,409.467,330.599,403.486,337.798z"/>
		<path fill="#E52629" d="M288.062,404.587l13.187,20.959l28.513-3.498l-15.111-23.984
			C306.035,400.853,297.16,403.032,288.062,404.587z"/>
	</g>
	<path fill="#FFFFFF" d="M117.183,215.05c0,76.301,62.115,138.373,138.459,138.373c76.046,0,137.901-62.072,137.901-138.373
		c0-76.359-61.855-138.467-137.901-138.467C179.298,76.583,117.183,138.69,117.183,215.05z M112.518,215.007
		c0-78.893,63.957-142.843,142.846-142.843c78.895,0,142.852,63.95,142.852,142.843c0,78.887-63.957,142.838-142.852,142.838
		C176.475,357.845,112.518,293.894,112.518,215.007z"/>
	<g>
		<path fill="#FFFFFF" d="M157.708,104.814l-4.703,4.322l-3.798-4.132c-3.45,1.243-6.701,1.882-9.752,1.917
			c-3.929,0.035-6.853-0.992-8.773-3.082l-0.132-0.143c-1.527-1.664-1.967-3.535-1.315-5.615c0.565-1.789,1.915-3.664,4.045-5.621
			l9.445-8.682c2.13-1.958,4.108-3.145,5.938-3.562c2.105-0.496,3.929,0.093,5.468,1.768l0.132,0.143
			c1.94,2.113,2.73,5.109,2.369,8.986c-0.271,3.022-1.18,6.211-2.726,9.563L157.708,104.814z M144.715,90.678l4.322,4.703
			c0.515-1.349,0.859-2.822,1.036-4.423c0.21-1.944,0.053-3.203-0.471-3.772c-0.314-0.342-0.777-0.424-1.389-0.249
			c-0.61,0.176-1.374,0.684-2.286,1.523l-8.255,7.587c-0.951,0.875-1.546,1.604-1.78,2.188c-0.236,0.584-0.188,1.059,0.144,1.418
			c0.524,0.57,1.759,0.82,3.705,0.75c1.67-0.063,3.202-0.297,4.595-0.701L140.015,95L144.715,90.678z"/>
		<path fill="#FFFFFF" d="M169.831,94.676l-13.272-21.921l5.464-3.308l5.813,9.603l-0.317-12.931l6.159-3.729l-0.356,13.314
			l14.292,8.206l-6.159,3.729l-13.197-7.894l7.038,11.624L169.831,94.676z"/>
		<path fill="#FFFFFF" d="M212.192,73.797l-5.627-25.001l6.23-1.402l2.466,10.952l3.804-12.363l7.023-1.581l-4.563,12.512
			l10.947,12.319l-7.024,1.581L215.44,59.139l2.983,13.256L212.192,73.797z"/>
		<path fill="#FFFFFF" d="M243.414,68.244l-6.375,0.382L235.89,49.46l6.376-0.382l0.383,6.375c1.257-0.721,2.464-1.647,3.619-2.776
			c1.399-1.376,2.078-2.452,2.03-3.225c-0.026-0.463-0.334-0.82-0.917-1.069c-0.584-0.249-1.493-0.337-2.729-0.263l-10.396,0.624
			l1.248-5.698l9.583-0.575c2.886-0.173,5.167,0.156,6.847,0.987c1.944,0.971,2.985,2.579,3.12,4.823l0.012,0.193
			c0.119,1.987-0.45,3.951-1.708,5.89c-1.093,1.671-2.645,3.278-4.65,4.823c-1.637,1.264-3.513,2.412-5.628,3.445L243.414,68.244z"
			/>
		<path fill="#FFFFFF" d="M273.563,68.87l1.668-16.717l-8.846,7.948l-0.796,7.974l-6.355-0.634l2.544-25.5l6.355,0.634l-0.876,8.783
			l8.85-7.987l6.355,0.634l-2.544,25.5L273.563,68.87z"/>
		<path fill="#FFFFFF" d="M284.448,70.308l5.063-18.521l6.161,1.684l-3.582,13.107l4.655,1.272c1.378,0.376,2.157,0.229,2.342-0.444
			c0.17-0.622-0.16-1.729-0.991-3.32c-0.746-1.408-1.798-3.073-3.157-4.997c1.148-0.354,2.354-0.868,3.616-1.54
			c1.549-0.834,2.405-1.55,2.567-2.147c0.09-0.323-0.04-0.66-0.386-1.009c-0.347-0.348-0.931-0.635-1.752-0.86l-10.791-2.949
			l3.011-4.996l10.829,2.959c2.713,0.742,4.56,1.695,5.538,2.86c0.979,1.166,1.206,2.708,0.683,4.627
			c-0.396,1.446-1.078,2.573-2.047,3.379c-0.799,0.667-1.964,1.259-3.496,1.778c1.425,1.836,2.396,3.374,2.912,4.614
			c0.659,1.6,0.791,3.124,0.396,4.569c-0.607,2.22-1.623,3.536-3.046,3.95c-1.224,0.363-3.278,0.149-6.166-0.64L284.448,70.308z"/>
		<path fill="#FFFFFF" d="M318.971,82.192l-11.63-5.378l10.757-23.259l13.808,6.386l-0.178,6.102l-10.188-4.712l-6.045,13.07
			l4.335,2.005c0.862,0.399,1.593,0.565,2.188,0.5s1.003-0.332,1.22-0.801c0.335-0.726,0.247-1.606-0.266-2.639l-3.788-7.041
			l5.705-0.901l3.816,7.054c0.525,0.954,0.796,2.046,0.812,3.275c0.014,1.229-0.217,2.359-0.693,3.39
			c-0.779,1.687-1.998,2.844-3.652,3.471C323.309,83.416,321.241,83.243,318.971,82.192z"/>
		<path fill="#FFFFFF" d="M329.999,91.602c0.031-2.069,0.216-3.88,0.551-5.433c0.537-2.445,1.501-4.694,2.893-6.746
			c2.755-4.062,5.905-6.638,9.452-7.729c4.178-1.287,8.584-0.359,13.219,2.785l3.332,2.26l-1.837,5.536l-3.973-2.694
			c-1.965-1.333-4.155-2.012-6.569-2.038c-2.415-0.026-4.068,0.619-4.961,1.935l5.959,4.042l3.129-4.613l5.286,3.585l-10.777,15.89
			l-5.285-3.585l4.496-6.632l-6.631-4.499c-0.623,0.918-1.091,2.206-1.402,3.862c-0.283,1.428-0.428,2.951-0.433,4.568
			L329.999,91.602z"/>
		<path fill="#FFFFFF" d="M370.436,93.646c-1.08-0.998-2.302-1.396-3.663-1.197c-1.362,0.2-2.56,0.86-3.593,1.979
			c-1.593,1.727-2.424,3.804-2.491,6.236c-0.072,2.777,0.944,5.14,3.049,7.082l0.626,0.578l-4.859,3.152
			c-3.451-3.188-5.176-6.836-5.171-10.949c-0.009-3.947,1.54-7.602,4.645-10.962c2.367-2.563,4.8-3.905,7.299-4.024
			c2.335-0.094,4.604,0.873,6.803,2.904l4.048,3.948l-2.565,5.062L370.436,93.646z"/>
	</g>
	<g>
		<path fill="#FFFFFF" d="M146.313,350.29l14.066-19.869l5.214,3.689l-6.163,8.703l11.406-4.99l5.876,4.16l-12.026,4.527
			l-1.409,15.789l-5.876-4.16l1.582-14.695l-7.458,10.535L146.313,350.29z"/>
		<path fill="#FFFFFF" d="M173.72,368.062l-5.686-2.912l8.318-16.232l5.684,2.912l-2.767,5.398c1.435,0.049,2.925-0.098,4.47-0.436
			c1.877-0.416,2.983-0.951,3.318-1.605c0.2-0.393,0.109-0.838-0.271-1.338c-0.383-0.498-1.125-1.031-2.227-1.596l-9.269-4.748
			l3.844-4.021l8.545,4.377c2.571,1.318,4.38,2.742,5.424,4.27c1.206,1.777,1.321,3.617,0.348,5.518l-0.084,0.164
			c-0.862,1.684-2.307,2.998-4.334,3.945c-1.754,0.813-3.872,1.342-6.354,1.586c-2.025,0.205-4.201,0.193-6.527-0.033
			L173.72,368.062z"/>
		<path fill="#FFFFFF" d="M202.391,380.212l5.171-15.102l-10.286,5.303l-2.467,7.201l-6.042-2.068l7.888-23.033l6.043,2.07
			l-2.717,7.934l10.297-5.338l6.043,2.07l-7.888,23.031L202.391,380.212z"/>
		<path fill="#FFFFFF" d="M213.822,383.716l3.295-17.939l6.282,1.154l-2.332,12.695l4.748,0.871c1.404,0.258,2.166,0.063,2.285-0.59
			c0.11-0.604-0.321-1.629-1.296-3.08c-0.874-1.281-2.076-2.785-3.606-4.514c1.108-0.418,2.258-0.992,3.45-1.721
			c1.461-0.904,2.245-1.646,2.352-2.225c0.058-0.313-0.102-0.621-0.479-0.93c-0.376-0.305-0.984-0.535-1.821-0.688l-11.003-2.021
			l2.524-4.959l11.041,2.029c2.767,0.508,4.69,1.279,5.773,2.313c1.082,1.035,1.453,2.484,1.111,4.344
			c-0.257,1.4-0.831,2.52-1.718,3.354c-0.731,0.691-1.833,1.338-3.309,1.939c1.588,1.641,2.697,3.027,3.328,4.168
			c0.805,1.473,1.08,2.906,0.822,4.309c-0.396,2.15-1.281,3.473-2.657,3.967c-1.182,0.434-3.245,0.379-6.189-0.162L213.822,383.716z
			"/>
		<path fill="#FFFFFF" d="M252.607,388.427l0.559-15.951l-8.3,8.064l-0.267,7.605l-6.384-0.223l0.853-24.33l6.384,0.223
			l-0.294,8.381l8.302-8.1l6.385,0.225l-0.854,24.33L252.607,388.427z"/>
		<path fill="#FFFFFF" d="M277.287,387.077l-1.685-15.871l-7.087,9.146l0.804,7.57l-6.352,0.674l-2.563-24.135l6.353-0.676
			l0.878,8.266l7.091-9.111l6.352-0.674l2.563,24.137L277.287,387.077z M274.563,361.405l-9.547,1.014l1.824-5.557l9.547-1.014
			L274.563,361.405z"/>
		<path fill="#FFFFFF" d="M319.583,376.165l-5.891,2.469l-7.05-16.822l5.891-2.469l2.346,5.596c0.961-1.064,1.811-2.299,2.548-3.699
			c0.892-1.701,1.194-2.893,0.911-3.57c-0.171-0.406-0.57-0.625-1.197-0.654c-0.628-0.029-1.514,0.195-2.656,0.674l-9.604,4.025
			l-0.599-5.531l8.854-3.711c2.665-1.117,4.919-1.582,6.761-1.396c2.136,0.225,3.617,1.32,4.442,3.289l0.07,0.17
			c0.73,1.744,0.807,3.697,0.225,5.857c-0.511,1.865-1.473,3.824-2.883,5.881c-1.148,1.68-2.561,3.336-4.232,4.969L319.583,376.165z
			"/>
		<path fill="#FFFFFF" d="M334.826,369.229l-11.636-21.385l5.61-3.053l11.636,21.383L334.826,369.229z"/>
		<path fill="#FFFFFF" d="M330.526,344.028l10.695-7.057l4.939,3.131l-7.366,4.859l10.47,15.871l-5.331,3.518L330.526,344.028z"/>
	</g>
</g>
</svg>
