<?xml version="1.0" encoding="UTF-8" standalone="no"?>
<!-- Created with Inkscape (http://www.inkscape.org/) -->
<!DOCTYPE svg PUBLIC "-//W3C//DTD SVG 1.1//EN" "http://www.w3.org/Graphics/SVG/1.1/DTD/svg11.dtd">
<svg
   xmlns:dc="http://purl.org/dc/elements/1.1/"
   xmlns:cc="http://creativecommons.org/ns#"
   xmlns:rdf="http://www.w3.org/1999/02/22-rdf-syntax-ns#"
   xmlns:svg="http://www.w3.org/2000/svg"
   xmlns="http://www.w3.org/2000/svg"
   version="1.1"
   width="400"
   height="510"
   id="svg4603"
   xml:space="preserve"><metadata
     id="metadata4609"><rdf:RDF><cc:Work
         rdf:about=""><dc:format>image/svg+xml</dc:format><dc:type
           rdf:resource="http://purl.org/dc/dcmitype/StillImage" /><dc:title></dc:title></cc:Work></rdf:RDF></metadata><defs
     id="defs4607" /><g
     transform="matrix(1.25,0,0,-1.25,-25.15375,509.86092)"
     id="g4611"><g
       transform="matrix(2.2269594,0,0,2.2269594,-34.505779,-10.433952)"
       id="g5491"><path
         d="m 28.123,167.713 c 20.9586,12.633 44.9528,16.517 68.2551,16.539 23.3019,0.044 45.4879,-3.236 68.2539,-16.539 l 0,-55.711 c 0,-21.8067 -7.209,-44.1493 -16.561,-60.4426 C 136.465,31.3148 119.211,16.2266 96.3781,8.50391 67.0719,18.4809 49.1934,39.5289 38.993,62.8086 31.6941,79.4594 28.123,97.1594 28.123,112.426 z"
         id="path4623"
         style="fill:#232770;fill-opacity:1;fill-rule:evenodd;stroke:none" /><path
         d="m 120.46875,824.21875 c -28.681625,0.0287 -58.0595,4.94125 -83.28125,19.8125 l 0,67.90625 c 0,15.73525 3.04825,31.851 7.875,46.75 2.51075,7.75575 5.77925,15.47613 9.40625,22.5625 5.05025,9.90438 11.2705,19.0869 18.46875,27.0938 4.91025,5.4966 10.185,10.3168 16.15625,14.7812 9.2905,6.9468 19.43362,12.4609 31.375,16.5625 16.20988,-5.5801 30.24,-14.3315 41.34375,-24.9063 14.3125,-13.6702 24.62875,-30.70308 31.6875,-49.31245 6.4175,-16.93513 10.25,-35.16837 10.25,-52.96875 l 0,-68.46875 c -25.50125,-15.09375 -54.26513,-19.8675 -83.28125,-19.8125 z m 0,2.03125 c 28.56988,-0.0562 56,4.48875 81.25,18.96875 l 0,65.78125 c 0,26.11425 -6.72,49.30612 -18.1875,71.375 -5.99875,11.55025 -13.66125,21.6866 -22.8125,30.5312 -10.825,10.462 -24.68263,19.1571 -40.25,24.625 -14.25725,-5.105 -27.036625,-12.5688 -37.75,-22.25 -16.1265,-14.5638 -27.4615,-33.35632 -34.6875,-54.2812 -5.4405,-15.7075 -8.8125,-32.4625 -8.8125,-49.0625 l 0,-66.75 c 24.1895,-14.17375 53.6285,-18.91 81.25,-18.9375 z m -6.59375,2.125 c -6.59054,0.19742 -13.17914,0.69187 -19.71875,1.5 l 103.75,103.75 c 1.07768,-6.64535 1.66113,-13.20175 1.75,-19.53125 L 113.96875,828.375 c -0.0312,9.2e-4 -0.0625,-9.4e-4 -0.0937,0 z m 21.71875,0.34375 64.09375,64.09375 0,-21.28125 -39.65625,-39.6875 c -7.9823,-1.60494 -16.15763,-2.60624 -24.4375,-3.125 z M 76.0625,833.0625 c -5.600885,1.30812 -11.108503,2.89317 -16.46875,4.84375 l 128.96875,129 c 2.11198,-5.20348 3.9451,-10.50795 5.46875,-15.84375 l -117.96875,-118 z m 18.3125,68.53125 c 0,0.335 0.120625,0.57875 0.34375,0.71875 0.223625,0.13875 0.546875,0.1875 0.9375,0.1875 0.390625,0 0.683125,-0.0488 0.90625,-0.1875 0.223125,-0.14 0.34375,-0.38375 0.34375,-0.71875 l -0.6875,0 c 0,0.13875 -0.0097,0.2575 -0.09375,0.3125 -0.0835,0.0562 -0.245125,0.0625 -0.46875,0.0625 -0.1675,0 -0.291125,-0.0312 -0.375,-0.0312 -0.0835,-0.0275 -0.129,-0.0688 -0.15625,-0.125 -0.02837,-0.055 -0.03125,-0.1075 -0.03125,-0.21875 l -0.71875,0 z m -47.40625,1.125 c -0.61375,0 -1.04,0.0825 -1.375,0.25 -0.3345,0.1675 -0.547875,0.4475 -0.6875,0.78125 -0.139125,0.335 -0.21875,0.7575 -0.21875,1.34375 0,0.53 0.0415,0.94375 0.125,1.25 0.0835,0.335 0.176375,0.61375 0.34375,0.78125 0.1675,0.195 0.439875,0.31875 0.71875,0.375 0.307125,0.0838 0.650375,0.15625 1.125,0.15625 0.557625,0 1.00875,-0.0725 1.34375,-0.15625 0.334875,-0.1125 0.579625,-0.245 0.71875,-0.46875 0.13975,-0.2225 0.25,-0.51625 0.25,-0.90625 l 0,-0.28125 -1.03125,0 0,0.3125 c 0,0.195 -0.06925,0.35375 -0.125,0.4375 -0.0835,0.11125 -0.23875,0.16 -0.40625,0.1875 -0.19525,0.0562 -0.443375,0.0625 -0.75,0.0625 -0.279375,0 -0.4575,-0.006 -0.625,-0.0625 -0.139125,-0.055 -0.26325,-0.1375 -0.375,-0.25 -0.0835,-0.11125 -0.128375,-0.2775 -0.15625,-0.5 -0.05562,-0.195 -0.0625,-0.48 -0.0625,-0.84375 0,-0.5025 0.0385,-0.84375 0.09375,-1.09375 0.05613,-0.22375 0.1455,-0.355 0.3125,-0.4375 0.1675,-0.085 0.4185,-0.125 0.78125,-0.125 0.335,0 0.61375,0.0338 0.78125,0.0625 0.167375,0.0562 0.26025,0.11 0.34375,0.25 0.084,0.11125 0.1285,0.3125 0.15625,0.5625 l 1.03125,0 c -0.05613,-0.39 -0.110375,-0.71375 -0.25,-0.9375 -0.139125,-0.25125 -0.380875,-0.41875 -0.6875,-0.53125 -0.335,-0.11125 -0.789,-0.21875 -1.375,-0.21875 z m 10.90625,0 c -0.5025,0 -0.90825,0.0688 -1.1875,0.125 -0.306625,0.0838 -0.523375,0.23875 -0.71875,0.40625 -0.1675,0.1675 -0.2915,0.38 -0.375,0.6875 -0.05613,0.30625 -0.09375,0.65 -0.09375,1.125 0,0.5575 0.0097,1.00875 0.09375,1.34375 0.05512,0.3075 0.17625,0.555 0.34375,0.75 0.167375,0.1675 0.380875,0.31875 0.6875,0.375 0.307125,0.0838 0.71975,0.125 1.25,0.125 0.474125,0 0.849125,-0.0412 1.15625,-0.125 0.27875,-0.0562 0.49225,-0.2075 0.6875,-0.375 0.1675,-0.195 0.2915,-0.44625 0.375,-0.78125 0.0835,-0.3075 0.125,-0.755 0.125,-1.3125 0,-0.44625 -0.0415,-0.81875 -0.125,-1.125 -0.0835,-0.3075 -0.2075,-0.52 -0.375,-0.6875 -0.1675,-0.1675 -0.411625,-0.3225 -0.71875,-0.40625 -0.27875,-0.0562 -0.650875,-0.125 -1.125,-0.125 z m -7.9375,0.0625 0,4.8125 1.0625,0 0,-4.03125 2.5625,0 0,4.03125 1.0625,0 0,-4.8125 -4.6875,0 z m 11.125,0 0,4.8125 1.0625,0 0,-1.59375 1.375,0 c 0.390125,0 0.6865,-0.008 0.9375,-0.0625 0.223125,-0.0562 0.454125,-0.13875 0.59375,-0.25 0.13925,-0.13875 0.25975,-0.305 0.34375,-0.5 0.05563,-0.22375 0.09375,-0.50625 0.09375,-0.8125 0,-0.44625 -0.0825,-0.74875 -0.25,-1 -0.139625,-0.2225 -0.3495,-0.35375 -0.65625,-0.4375 -0.27875,-0.0838 -0.682125,-0.15625 -1.15625,-0.15625 l -2.34375,0 z m 4.90625,0 0,0.8125 1.5625,0 0,4 1.0625,0 0,-4 1.625,0 0,-0.8125 -4.25,0 z m 4.9375,0 0,4.8125 1.53125,0 1.875,-3.25 c 0.05612,-0.11125 0.1005,-0.2 0.15625,-0.3125 0.05563,-0.0838 0.141625,-0.245 0.28125,-0.46875 -0.05563,0.22375 -0.09375,0.54 -0.09375,0.875 l 0,3.15625 1.0625,0 0,-4.8125 -1.5,0 -1.875,3.21875 c -0.084,0.1125 -0.128375,0.225 -0.15625,0.28125 -0.05563,0.0825 -0.1445,0.24875 -0.3125,0.5 0.05612,-0.2225 0.09375,-0.50875 0.09375,-0.84375 l 0,-3.15625 -1.0625,0 z m 5.75,0 0,4.8125 2.90625,0 c 0.251,0 0.492125,-0.0412 0.6875,-0.125 0.19525,-0.055 0.36075,-0.13875 0.5,-0.25 0.139625,-0.14 0.228625,-0.27 0.3125,-0.4375 0.05575,-0.16625 0.0625,-0.3675 0.0625,-0.5625 0,-0.3075 -0.07913,-0.55375 -0.21875,-0.75 -0.167875,-0.195 -0.380375,-0.315 -0.6875,-0.34375 l 0,-0.0312 C 80.748625,904.95375 81,904.61375 81,904 c 0,-0.27875 -0.07563,-0.52 -0.1875,-0.6875 -0.11125,-0.19625 -0.276375,-0.29125 -0.5,-0.375 -0.223125,-0.0838 -0.50875,-0.15625 -0.84375,-0.15625 l -2.8125,0 z m 5.3125,0 0,4.8125 1.0625,0 0,-2.03125 2.5625,0 0,2.03125 1.03125,0 0,-4.8125 -1.03125,0 0,2 -2.5625,0 0,-2 -1.0625,0 z m 5.625,0 0,4.8125 1.53125,0 1.84375,-3.25 c 0.0835,-0.11125 0.163125,-0.2 0.21875,-0.3125 0.05563,-0.0838 0.141625,-0.245 0.28125,-0.46875 -0.05612,0.22375 -0.09375,0.54 -0.09375,0.875 l 0,3.15625 1.0625,0 0,-4.8125 -1.53125,0 -1.875,3.21875 c -0.05563,0.1125 -0.100625,0.225 -0.15625,0.28125 -0.02787,0.0825 -0.141625,0.24875 -0.28125,0.5 0.05563,-0.2225 0.0625,-0.50875 0.0625,-0.84375 l 0,-3.15625 -1.0625,0 z m 5.75,0 0,4.8125 1.53125,0 1.84375,-3.25 c 0.05563,-0.11125 0.245625,-0.3625 0.46875,-0.78125 -0.05563,0.22375 -0.09375,0.51125 -0.09375,0.875 l 0,3.15625 1.0625,0 0,-4.8125 -1.5,0 -1.875,3.21875 c -0.05612,0.1125 -0.104,0.2325 -0.1875,0.34375 -0.08388,0.14 -0.1665,0.27125 -0.25,0.4375 0.05563,-0.2225 0.0625,-0.50875 0.0625,-0.84375 l 0,-3.15625 -1.0625,0 z m 7.375,0 0,4.8125 1.0625,0 0,-2.0625 0.46875,0 2.03125,2.0625 1.3125,0 -2.40625,-2.46875 2.1875,-2.34375 -1.28125,0 -1.84375,1.96875 -0.46875,0 0,-1.96875 -1.0625,0 z m 6,0 0,3.5625 c 0,0.14 -0.0727,0.26125 -0.15625,0.34375 -0.0835,0.0838 -0.21438,0.125 -0.4375,0.125 l -0.3125,0 0,0.75 c 0.1675,0.0287 0.36375,0.0312 0.53125,0.0312 0.47413,0 0.83938,-0.125 1.0625,-0.375 0.19537,-0.25125 0.3125,-0.5775 0.3125,-0.96875 l 0,-2.6875 2.09375,0 0,4.03125 1.03125,0 0,-4.8125 -4.125,0 z m 4.71875,0 1.875,3.5625 c 0.0561,0.0838 0.0625,0.16 0.0625,0.1875 0,0.0562 -0.004,0.10125 -0.0312,0.15625 -0.084,0.0838 -0.28663,0.15625 -0.59375,0.15625 -0.0556,0 -0.17975,-0.0312 -0.375,-0.0312 l 0,0.78125 c 0.22312,0 0.46438,0.0312 0.6875,0.0312 0.19537,0 0.36375,-0.0412 0.53125,-0.125 0.1675,-0.0562 0.36325,-0.1725 0.53125,-0.3125 0.13912,-0.1675 0.26663,-0.37625 0.40625,-0.65625 l 1.90625,-3.75 -1.25,0 -1.21875,2.78125 -1.28125,-2.78125 -1.25,0 z m 5.5625,0 0,4.8125 2.78125,0 c 0.335,0 0.59275,-0.0762 0.84375,-0.1875 0.22312,-0.1125 0.41988,-0.2775 0.53125,-0.5 0.11175,-0.22375 0.1875,-0.475 0.1875,-0.78125 0,-0.30625 -0.0757,-0.55875 -0.1875,-0.78125 -0.11137,-0.22375 -0.28038,-0.3925 -0.53125,-0.53125 -0.22325,-0.11125 -0.50875,-0.15625 -0.84375,-0.15625 l -1.75,0 0,-1.125 2.78125,0 0,-0.75 -3.8125,0 z m -59.125,0.75 c 0.27875,0 0.488875,0.004 0.65625,0.0312 0.13975,0.0287 0.291,0.1075 0.375,0.21875 0.0835,0.0838 0.15925,0.27625 0.1875,0.5 0.02788,0.2225 0.0625,0.51625 0.0625,0.90625 0,0.39 -0.03462,0.6825 -0.0625,0.90625 -0.02825,0.195 -0.07625,0.38875 -0.1875,0.5 -0.084,0.11125 -0.2075,0.1625 -0.375,0.21875 -0.167375,0.0275 -0.3775,0.0625 -0.65625,0.0625 -0.307125,0 -0.55125,-0.035 -0.71875,-0.0625 -0.167,-0.0287 -0.259875,-0.1075 -0.34375,-0.21875 -0.0835,-0.11125 -0.162625,-0.2775 -0.21875,-0.5 -0.02788,-0.22375 0,-0.51625 0,-0.90625 0,-0.41875 -0.02788,-0.71125 0,-0.90625 0.05613,-0.22375 0.13525,-0.41625 0.21875,-0.5 0.08387,-0.11125 0.17675,-0.19 0.34375,-0.21875 0.139625,-0.0275 0.411625,-0.0312 0.71875,-0.0312 z m 19.8125,0 1.53125,0 c 0.278875,0 0.451125,0.0725 0.5625,0.15625 0.139125,0.0838 0.1875,0.21375 0.1875,0.4375 0,0.195 -0.041,0.3225 -0.125,0.40625 -0.05563,0.11125 -0.1415,0.19125 -0.28125,0.21875 -0.11175,0.0275 -0.308125,0.0625 -0.53125,0.0625 l -1.34375,0 0,-1.28125 z m -15.5625,0.0312 1.28125,0 c 0.251,0 0.4545,0.0375 0.59375,0.0937 0.139625,0.055 0.25675,0.13875 0.3125,0.25 0.05612,0.14 0.09375,0.31125 0.09375,0.5625 0,0.195 -0.03763,0.3575 -0.09375,0.46875 -0.05575,0.1125 -0.172875,0.19375 -0.3125,0.25 -0.13925,0.0287 -0.34275,0.0625 -0.59375,0.0625 l -1.28125,0 0,-1.6875 z m 55.90625,1.84375 1.375,0 c 0.30712,0 0.54788,0.045 0.6875,0.15625 0.13975,0.085 0.1875,0.28375 0.1875,0.5625 0,0.195 -0.0381,0.35375 -0.0937,0.4375 -0.0556,0.11125 -0.16987,0.16375 -0.28125,0.21875 -0.13962,0.0287 -0.30813,0.0625 -0.53125,0.0625 l -1.34375,0 0,-1.4375 z m -40.34375,0.0625 1.5625,0 c 0.19525,0 0.356875,0.035 0.46875,0.0625 0.139125,0.055 0.225625,0.1075 0.28125,0.21875 0.05563,0.085 0.0625,0.2075 0.0625,0.375 0,0.25125 -0.0825,0.4475 -0.25,0.53125 -0.167,0.11125 -0.418375,0.1875 -0.78125,0.1875 l -1.34375,0 0,-1.375 z m -33.0625,4.34375 0,3.71875 4.75,0 0,11.375 4.65625,0 0,-11.375 4.75,0 0,-3.71875 -14.15625,0 z m 18.3125,0 -5.65625,15.09375 4.75,0 0.75,-2.5 5.28125,0 0.75,2.5 4.71875,0 0,-0.40625 -5.5,-14.6875 -5.09375,0 z m 10.59375,14.6875 0.15625,0.40625 7.875,0 c 0.335,0 1.03375,-0.08 2.09375,-0.21875 0.78125,-0.1125 1.359375,-0.24875 1.75,-0.5 0.641625,-0.3625 1.136625,-0.8275 1.5,-1.46875 0.36275,-0.61375 0.53125,-1.3125 0.53125,-2.09375 0,-0.97625 -0.2475,-1.765 -0.75,-2.40625 -0.52975,-0.64125 -1.317875,-1.0925 -2.40625,-1.34375 0.725625,-0.25125 1.26275,-0.58 1.625,-1 0.558125,-0.64125 0.84375,-1.41625 0.84375,-2.28125 0,-1.08875 -0.40625,-1.9625 -1.1875,-2.6875 -0.7535,-0.7262 -1.893125,-1.0937 -3.34375,-1.0937 l -8.6875,0 0,14.6875 z m 14.65625,-14.6875 0,15.09375 4.65625,0 0,-5.59375 2.5625,0 c 1.869125,0 3.266625,-0.41625 4.1875,-1.28125 0.9205,-0.86375 1.375,-2.0875 1.375,-3.59375 0,-1.48 -0.41313,-2.5975 -1.25,-3.40625 -0.837,-0.80875 -2.11075,-1.21875 -3.8125,-1.21875 l -7.71875,0 z m 13.3125,0 0,15.09375 4.65625,0 0,-15.09375 -4.65625,0 z m 11.875,0 c -1.45025,0 -2.52788,0.125 -3.28125,0.375 -0.78125,0.25125 -1.3975,0.67875 -1.84375,1.375 -0.47413,0.6425 -0.6875,1.48875 -0.6875,2.4375 0,0.83625 0.16837,1.5725 0.53125,2.1875 0.36275,0.585 0.82375,1.0775 1.4375,1.46875 0.4185,0.22375 0.959,0.42625 1.65625,0.59375 -0.55812,0.195 -0.96775,0.3675 -1.21875,0.5625 -0.19525,0.1125 -0.415,0.39125 -0.75,0.78125 -0.335,0.41875 -0.5445,0.715 -0.65625,0.9375 l -2.25,4.375 5.25,0 2.53125,-4.625 c 0.30713,-0.585 0.562,-0.98875 0.8125,-1.15625 0.335,-0.25125 0.73725,-0.34375 1.15625,-0.34375 l 0.40625,0 0,6.125 4.6875,0 0,-15.09375 -7.78125,0 z m -35.15625,3.0625 2.0625,0 c 0.697375,0 1.189875,0.12375 1.46875,0.375 0.27925,0.25125 0.40625,0.58375 0.40625,1.03125 0,0.47375 -0.127,0.8425 -0.40625,1.09375 -0.278875,0.2225 -0.774375,0.34375 -1.5,0.34375 l -2.03125,0 0,-2.84375 z m 14.625,0 1.34375,0 c 0.86475,0 1.44625,0.16625 1.78125,0.5 0.307125,0.3075 0.46875,0.745 0.46875,1.21875 0,0.475 -0.1685,0.8525 -0.53125,1.1875 C 95.543875,916.0875 94.893,916.25 94,916.25 l -1.15625,0 0,-3.375 z m 21,0 c 0.17743,-0.0171 0.35325,0 0.5625,0 l 2.0625,0 0,3.0625 -1.96875,0 c -0.19537,0 -0.60537,-0.08 -1.21875,-0.21875 -0.30763,-0.0838 -0.55475,-0.2175 -0.75,-0.46875 -0.19575,-0.25125 -0.3125,-0.54 -0.3125,-0.875 0,-0.47375 0.16213,-0.87375 0.46875,-1.125 0.23034,-0.18844 0.62397,-0.32385 1.15625,-0.375 z m -48.40625,0.84375 1.65625,5.40625 -3.3125,0 1.65625,-5.40625 z m 12.78125,4.875 2.34375,0 c 0.809,0 1.412125,0.15625 1.71875,0.40625 0.335,0.28 0.5,0.6475 0.5,1.09375 0,0.47375 -0.165,0.84625 -0.5,1.125 -0.3345,0.27875 -0.90975,0.4375 -1.71875,0.4375 l -2.34375,0 0,-3.0625 z m -31.4375,8.46875 c -0.529875,0 -0.898875,0.0862 -1.09375,0.28125 -0.195375,0.16775 -0.28125,0.52938 -0.28125,1.03125 l 0,2.9375 c 0,0.502 0.08588,0.86375 0.28125,1.03125 0.194875,0.19525 0.563875,0.28125 1.09375,0.28125 l 3.4375,0 c 0.52975,0 0.929625,-0.086 1.125,-0.28125 0.19525,-0.1675 0.3125,-0.52925 0.3125,-1.03125 l 0,-0.6875 -1.34375,-0.25 0,1.21875 -3.59375,0 0,-3.5625 3.59375,0 0,1.0625 1.34375,-0.1875 0,-0.53125 c 0,-0.50187 -0.11725,-0.8635 -0.3125,-1.03125 -0.195375,-0.195 -0.59525,-0.28125 -1.125,-0.28125 l -3.4375,0 z m 5.9375,0 0,5.5625 1.34375,0 0,-5.5625 -1.34375,0 z m 2.59375,0 0,5.5625 1.0625,0 0,-3.71875 c -0.02788,-0.0835 -0.03125,-0.20075 -0.03125,-0.3125 0,0.0556 0.07238,0.13825 0.15625,0.25 0.05575,0.11137 0.104,0.229 0.1875,0.3125 l 2.15625,2.78125 0.25,0 2.15625,-2.78125 c 0.05613,-0.0277 0.06938,-0.10687 0.125,-0.21875 0.02837,-0.0277 0.06538,-0.10013 0.09375,-0.15625 0.05512,-0.0835 0.06587,-0.13188 0.09375,-0.1875 l 0,0.34375 0,0.25 0,3.4375 1.21875,0 0,-5.5625 -1.09375,0 -2.625,3.34375 -2.6875,-3.34375 -1.0625,0 z m 9.3125,0 c -0.446875,0 -0.776875,0.0825 -1,0.25 -0.195375,0.1675 -0.28125,0.44962 -0.28125,0.8125 l 0,2.375 c 0,0.39062 0.08588,0.67625 0.28125,0.84375 0.223125,0.16737 0.553125,0.25 1,0.25 l 2.90625,0 0,1.03125 1.4375,0 0,-1.03125 2.84375,0 c 0.44625,0 0.776875,-0.0826 1,-0.25 0.19525,-0.1675 0.3125,-0.45313 0.3125,-0.84375 l 0,-2.375 c 0,-0.36288 -0.11725,-0.645 -0.3125,-0.8125 -0.223125,-0.1675 -0.525875,-0.25 -1,-0.25 l -7.1875,0 z m 9.09375,0 0,5.5625 5.5,0 0,-1.03125 -4.15625,0 0,-1.40625 2.1875,0 0,-0.9375 -2.1875,0 0,-1.25 4.09375,0 0,-0.9375 -5.4375,0 z m 6.125,0 0,5.5625 1.3125,0 0,-2.15625 3.5625,0 c 0.446875,0 0.808,-0.11375 1.03125,-0.28125 0.19525,-0.167 0.28125,-0.44975 0.28125,-0.8125 l 0,-1.25 c 0,-0.36288 -0.086,-0.645 -0.28125,-0.8125 -0.22325,-0.1675 -0.584375,-0.25 -1.03125,-0.25 l -4.875,0 z m 8.09375,0 c -0.5575,0 -0.901875,0.0862 -1.125,0.28125 -0.1675,0.16775 -0.28125,0.52937 -0.28125,1.03125 l 0,2.9375 c 0,0.502 0.11375,0.86375 0.28125,1.03125 0.223125,0.19525 0.5675,0.28125 1.125,0.28125 l 4.21875,0 c 0.558125,0 0.93025,-0.086 1.125,-0.28125 0.195375,-0.1675 0.28125,-0.52925 0.28125,-1.03125 l 0,-2.9375 c 0,-0.50188 -0.08588,-0.8635 -0.28125,-1.03125 -0.19475,-0.195 -0.566875,-0.28125 -1.125,-0.28125 l -4.21875,0 z m 6.5,0 0,5.5625 1.3125,0 0,-4.53125 3.8125,0 0,4.53125 1.28125,0 0,-5.5625 -6.40625,0 z m 8.40625,0 c -0.55813,0 -0.93313,0.0862 -1.15625,0.28125 -0.19538,0.16775 -0.28125,0.52937 -0.28125,1.03125 l 0,2.9375 c 0,0.502 0.0859,0.86375 0.28125,1.03125 0.22312,0.19525 0.59812,0.28125 1.15625,0.28125 l 4.21875,0 c 0.53025,0 0.89838,-0.086 1.09375,-0.28125 0.19525,-0.1675 0.28125,-0.52925 0.28125,-1.03125 l 0,-2.9375 c 0,-0.50188 -0.086,-0.8635 -0.28125,-1.03125 -0.19537,-0.195 -0.5635,-0.28125 -1.09375,-0.28125 l -4.21875,0 z m 8.875,0 -3.15625,5.5625 1.34375,0 2.15625,-4.03125 2.3125,4.03125 1.5625,0 -3.3125,-5.5625 -0.90625,0 z m 4.21875,5.5625 4.90625,0 c 0.44625,0 0.77688,-0.0825 1,-0.25 0.19525,-0.16737 0.3125,-0.44975 0.3125,-0.8125 l 0,-1.25 c 0,-0.36287 -0.11725,-0.645 -0.3125,-0.8125 -0.22312,-0.19575 -0.55375,-0.28125 -1,-0.28125 l -3.59375,0 0,-2.15625 -1.3125,0 0,5.5625 z m -50.75,-4.625 2.34375,0 0,2.5625 -2.34375,0 c -0.223125,0 -0.356875,-0.0415 -0.46875,-0.125 -0.084,-0.0561 -0.09375,-0.17675 -0.09375,-0.34375 l 0,-1.625 c 0,-0.167 0.0097,-0.28813 0.09375,-0.34375 0.0835,-0.084 0.245625,-0.125 0.46875,-0.125 z m 3.78125,0 2.25,0 c 0.223125,0 0.38475,0.041 0.46875,0.125 0.0835,0.0556 0.125,0.20462 0.125,0.34375 l 0,1.625 c 0,0.167 -0.0415,0.291 -0.125,0.375 -0.084,0.0556 -0.245625,0.0937 -0.46875,0.0937 l -2.25,0 0,-2.5625 z m 12.1875,0 3,0 c 0.251,0 0.38525,0.041 0.46875,0.125 0.084,0.0556 0.125,0.17675 0.125,0.34375 l 0,0.5625 c 0,0.167 -0.041,0.2915 -0.125,0.375 -0.0835,0.0561 -0.21775,0.0937 -0.46875,0.0937 l -3,0 0,-1.5 z m 6.6875,0.0312 4.40625,0 0,3.5625 -4.40625,0 0,-3.5625 z m 14.90625,0 4.375,0 0,3.5625 -4.375,0 0,-3.5625 z m 33.3125,0.0312 c 0.335,2.25975 -0.365,5.59962 -1.59375,7.46875 -3.6825,5.52437 -13.75487,13.9195 -18.21875,22.09375 -1.78562,3.26463 -1.483,4.65287 -0.5625,7.75 0.58588,2.0645 0.83888,3.78225 1.0625,5.875 0.52975,4.603 0.416,9.67475 -0.28125,13.46875 -1.5625,0.27925 -2.75588,0.6665 -3.84375,2.3125 l -0.59375,-0.46875 c 0.78125,-1.08837 1.61137,-1.77538 3.0625,-2.25 -0.168,-0.55763 0.12063,-2.19387 1.125,-3.03125 0.1675,-1.08787 0.28125,-2.2925 0.28125,-3.6875 0.0279,-1.86913 -0.13712,-4.11725 -0.5,-6.65625 -0.53025,-0.83738 -1.09425,-1.55375 -1.875,-2 0.33437,-0.94875 0.67975,-1.94963 0.0937,-3.09375 -0.47413,0.64162 -0.9595,0.92625 -1.40625,1.09375 0.47413,-1.33938 0.25787,-2.41062 0.0625,-2.96875 -0.69725,0.78125 -1.91063,1.60262 -2.46875,1.9375 -2.59475,-0.893 -5.27725,-0.94388 -6.28125,-0.21875 -0.44675,0.30713 -0.6415,0.7265 -0.78125,1.3125 0.11138,0.0556 0.26375,0.1665 0.375,0.25 0.0563,-0.11125 0.28663,-0.25338 0.59375,-0.28125 0.75288,-0.084 2.51662,-0.0113 2.65625,0.15625 0.0556,0.0556 0.059,0.23925 0.0312,0.40625 -0.19537,-0.22262 -1.29888,-0.52537 -1.96875,-0.21875 -0.167,0.0562 -0.0791,0.60062 -0.21875,0.65625 -0.30725,0.11137 -0.59375,0 -0.59375,0 0,0.0556 -0.63088,-0.48825 -0.9375,-0.65625 -0.44675,-0.2505 -1.13913,-0.34713 -1.78125,-0.375 -0.72513,-0.0561 -1.856375,0.0902 -2.21875,0.84375 -0.27925,0.6415 -0.355,1.83013 -0.1875,2.5 0.8925,-0.4745 1.53812,-0.95163 2.375,-0.8125 1.22763,0.2515 1.5805,1.81787 3.03125,2.125 0.22312,0.0556 0.20512,0.288 0.0937,0.34375 -0.809,0.30712 -1.433,0.46525 -2.4375,0.4375 -0.92038,0 -1.771,-0.083 -2.46875,-0.25 -0.223125,0.55763 -0.210375,1.88825 0.375,2 0.7535,0.11138 1.51025,-0.57275 2.375,-0.65625 1.395,-0.11138 2.14213,1.09375 3.0625,1.09375 0.2515,0 0.17137,0.0148 0.5625,-0.125 0.30675,-0.11125 0.46725,-0.19775 0.71875,-0.28125 l 0.15625,0.53125 c -6.19375,2.73388 -9.721125,7.51712 -10,14.6875 0.4185,0.0556 0.55025,0.16988 0.96875,0.28125 0.05563,0.94862 0.275875,1.71875 -0.03125,2.5 -0.250875,0.64162 -1.584375,1.62212 -2.8125,1.59375 -1.395,-0.0551 -3.07275,-0.88812 -4.71875,-1 -1.19975,-0.0551 -2.32625,0.26025 -3.21875,1.125 -1.19975,1.17188 -1.830625,1.94338 -2.5,2.25 -0.474125,0.2515 -1.617625,-0.4775 -2.59375,0.75 -0.726125,0.89313 -0.88825,2.48502 -0.21875,3.65625 1.506875,-1.64585 3.785625,-2.33163 5.90625,-1.96875 1.646,0.30662 3.24275,1.10773 4.21875,2.53135 0.61425,-0.3628 0.712375,-1.0772 0.65625,-1.71885 -0.05575,-0.893 -0.809125,-1.55713 -0.78125,-2.03125 0,-0.25138 0.214375,-0.32275 0.4375,-0.40625 1.255375,1.11563 3.9365,4.01815 4.96875,4.68755 1.171875,-1.0045 1.981,-1.6963 3.125,-2.81255 0.72513,-0.61375 0.46287,-1.1875 0.15625,-1.96875 -0.94925,-2.28763 -0.15575,-4.83925 2.1875,-5.84375 L 103,991.59375 c -3.82225,2.23188 -1.375,5.56838 -1.375,6.65625 0,1.08838 -0.44187,2.4516 -1,3.875 -0.725125,1.7851 -1.5435,3.7953 -2.6875,5.2188 -0.362375,0.4183 -0.769125,0.7554 -1.1875,1.0624 -0.4185,0.3072 -0.769,0.6353 -1.1875,0.7188 -0.44625,0.084 -0.90775,-0.3081 -1.4375,-0.5312 -0.391125,-0.1676 -0.772,-0.268 -1.21875,-0.1563 -0.808625,0.1675 -1.527875,1.751 -1.5,3.0625 l 14.1875,0 c -0.0835,-1.8135 -0.74812,-2.356 -1.25,-2.7188 l -1.90625,0.9376 -0.375,-0.3438 c 1.45063,-1.4512 4.8715,-4.248 4.84375,-4.75 -0.0284,-0.4463 -0.17338,-0.7663 -0.3125,-1.1562 -0.44638,-1.284 -0.15812,-2.8302 1.125,-3.50005 l 0.25,0.75005 c -0.66988,0.4746 -1.12738,1.2699 -0.625,2.2187 4.24025,-0.3911 9.0805,-2.9795 13.65625,-4.625 4.82625,-1.73 9.275,-4.48637 13.125,-4.375 2.20375,0.0561 3.9025,1.09713 5.4375,2.6875 0.92,0.94875 1.705,2.14013 2.375,3.3125 0.8925,1.562 0.87125,3.1871 1.625,3.9687 1.64625,-0.7259 3.25625,-1.624 4.34375,-1.0937 0.72625,0.3906 0.75375,3.6191 0.78125,4.0937 0.4475,0.1672 1.0525,0.5602 1.5,1.0626 -1.95375,0.5579 -2.75375,2.1362 -2.78125,3.5312 l 10.4375,0 c 0.1125,-1.5346 -1.225,-3.1314 -2.84375,-4.75 -1.28375,-1.897 -1.5525,-4.1772 -3.03125,-6.4375 -0.67,-1.03225 -1.71,-2.02688 -2.9375,-3.03125 -0.72625,-1.36712 -0.82625,-3.3965 -1.71875,-4.875 -0.58625,0.33488 -1.36125,0.584 -2.03125,0.5 -1.86875,-0.251 -1.725,-2.78512 -4.125,-5.15625 -2.31625,-2.26025 -4.5675,-3.42237 -8.25,-3.8125 -1.0325,1.61812 -2.66875,2.1875 -4.59375,2.1875 l 0,-0.75 c 2.87375,-0.11175 5.07125,-1.999 4.625,-4.59375 4.24125,0.30662 5.22625,-2.275 5.03125,-4.5625 -1.25625,0.16737 -1.7975,0.0591 -2.71875,0.0312 l -0.0312,-0.4375 c 4.38,0.0556 5.32625,-3.23587 5.1875,-5.71875 -2.0925,0.0835 -4.39625,-0.2525 -5.875,-0.53125 l 0.125,-0.5625 c 1.64625,0.11175 2.555,0.1215 3.53125,0.0937 5.385,-0.11187 6.60875,-4.21437 6.46875,-7.5625 -2.20375,0.22363 -3.20875,0.20225 -4.6875,0.0625 L 140,960.625 c 1.14375,-0.1675 4.43875,-0.25788 6.53125,-1.625 1.84125,-1.22762 2.88875,-3.414 2.21875,-6.34375 -3.40375,2.48338 -8.47875,3.13475 -10.125,3.21875 l -0.28125,-0.84375 c 2.9575,-0.75338 5.33,-1.80088 8.34375,-2.75 3.8225,-1.22713 5.60375,-6.61037 3.34375,-9.09375 -4.0175,5.13375 -11.73375,7.28325 -14.71875,8.34375 l -0.34375,-0.75 C 139.7125,947.79587 143.2375,946.4375 146,944.875 c 4.93875,-2.79 4.06125,-8.51375 1.1875,-11.75 -0.67,5.44037 -7.5475,10.33487 -12.375,13.125 l -0.375,-0.59375 c 3.62625,-2.76175 6.465,-5.30812 7.21875,-8.65625 0.80875,-3.543 -0.85125,-7.98925 -5.59375,-8.9375 z m -18.8125,2.125 3,0 c 0.22362,0 0.38525,0.0381 0.46875,0.0937 0.084,0.084 0.15625,0.17675 0.15625,0.34375 l 0,0.59375 c 0,0.167 -0.0722,0.288 -0.15625,0.34375 -0.0835,0.084 -0.24513,0.0937 -0.46875,0.0937 l -3,0 0,-1.46875 z m 9.875,0.21875 c -0.055,7.03125 -3.23387,9.33737 -6.21875,13.96875 -2.51125,3.87788 -5.94037,8.4175 -4.40625,11.375 3.01325,-4.6035 6.795,-9.211 11.59375,-14.09375 -0.1675,-0.167 -0.43,-0.36375 -0.625,-0.53125 2.20375,-2.204 3.63125,-4.06825 3.6875,-5.9375 0.0275,-2.00875 -1.29625,-4.11125 -4.03125,-4.78125 z m -15.4375,35.5625 c 0.0277,0.53038 -0.0126,0.94187 -0.375,1.5 -0.44675,0.558 -1.32812,0.1025 -0.9375,-0.34375 0.64163,-0.5025 0.75487,-0.59812 1.3125,-1.15625 z m 44.875,1.09375 c -0.3625,1.75738 -1.115,2.86525 -2.0625,3.5625 -2.345,1.73 -6.9825,2.09862 -7.09375,5 -0.0838,1.84175 1.4825,2.7725 3.15625,4 1.87,1.36712 3.7275,2.84475 3.53125,4.9375 -0.0825,1.1435 -1.13625,2.1015 -2.53125,1.90625 -2.3425,-0.335 -4.08375,-2.4165 -7.90625,-2.5 -1.3675,-0.0556 -3.5075,0.35688 -4.34375,1.25 1.11625,0.86513 2.155,1.68562 3.1875,2.96875 0.66875,-0.558 1.67375,-1.18075 2.59375,-1.125 3.01375,0.25137 4.5225,2.0215 7.3125,1.9375 2.34375,-0.084 3.7675,-1.99662 3.90625,-4.3125 0.27875,-5.32862 -6.74625,-6.78562 -6.71875,-8.90625 0.0275,-2.20412 6.37875,-3.17287 7.96875,-4.875 0.8375,-0.89262 1.565,-2.03025 1.84375,-3.84375 l -2.84375,0 z m -61.875,2.5625 c -0.837375,-0.0557 -1.3325,0.33838 -1.5,0.8125 1.53425,0.19538 2.2685,2.11087 3.71875,2.25 1.423375,0.11175 2.098125,-1.4375 3.4375,-1.4375 0.27875,0 1.09913,0.0274 1.40625,0 0.39062,-0.0284 0.624,-0.0512 0.875,-0.21875 l -0.40625,-0.34375 c -0.502,0.13962 -0.80025,0.0869 -1.21875,0.0312 -0.61375,-0.11188 -1.07025,-0.29588 -1.65625,-0.15625 -0.502375,0.11137 -0.774875,0.65625 -1.5,0.65625 -1.45075,0 -1.7895,-1.482 -3.15625,-1.59375 z m 38.90625,25.28125 c -0.18125,0.01 -0.38469,0.0345 -0.59375,0.0625 -1.98125,0.30663 -4.96,1.45113 -6.96875,2.34375 0.39,2.70655 0.8475,5.38375 1.40625,8.06255 -0.8375,0.8647 -1.74312,1.9017 -2.46875,2.9062 -0.94875,-0.2509 -2.20025,-0.6059 -3.34375,-0.1874 -1.42288,0.5025 -2.3995,1.8157 -2.34375,3.4062 l 8.21875,0 c 0.58625,-0.7261 1.47625,-1.9307 2.3125,-2.6562 l 0.78125,0.6562 c 0.44625,-0.251 0.99,-0.7155 1.6875,-1.4688 0.97625,-1.0883 2.40625,-3.0416 3.1875,-3.9062 0.055,-1.4791 -0.38625,-4.0181 -0.46875,-5.4688 -0.085,-1.17187 -0.045,-2.47412 -0.15625,-3.5625 -0.29344,-0.14606 -0.70625,-0.21759 -1.25,-0.1875 z m -46.8125,4.125 c 0.05575,0.53025 0.06637,1.0287 0.09375,1.5313 0.558125,0.251 1.1885,0.6785 1.71875,1.125 0.836875,0.028 1.663125,0.076 2.5,0.1875 l 0.03125,-0.8438 c -1.088375,-1.17172 -2.61425,-1.94438 -4.34375,-2 z m -0.3125,0.0312 c -1.701625,0.0274 -3.224625,0.79703 -4.3125,1.9687 l 0.21875,0.8438 c 0.86475,-0.1391 1.732375,-0.2221 2.625,-0.25 0.474125,-0.3906 1.03225,-0.7838 1.5625,-1.0625 -0.02837,-0.5025 -0.0375,-1.02637 -0.09375,-1.5 z m -1.65625,2.9063 c -0.836875,0.028 -1.691375,0.1108 -2.5,0.25 -0.307125,0.5579 -0.5235,1.1362 -0.71875,1.75 0.19525,0.9207 0.57025,1.7402 1.15625,2.4374 0.585875,0.028 1.091875,0.015 1.59375,-0.125 0.195375,-0.8645 0.59125,-1.7158 1.09375,-2.4687 -0.22325,-0.6695 -0.429625,-1.2577 -0.625,-1.8437 z m 3.875,0.062 c -0.195375,0.6139 -0.3985,1.1988 -0.59375,1.8126 l 0,0.031 c 0.61375,0.6972 1.11275,1.5102 1.53125,2.375 0.4185,0.028 0.96675,-0.048 1.46875,-0.1875 0.4185,-0.6137 0.73875,-1.3091 0.90625,-2.0625 -0.195375,-0.6138 -0.4185,-1.2233 -0.78125,-1.7812 -0.809125,-0.1119 -1.666,-0.1876 -2.53125,-0.1876 z m -1.96875,1.9376 c -0.355641,0 -0.7,0 -1.0625,0.031 -0.474625,0.7534 -0.808125,1.5728 -1.03125,2.4375 0.251,0.6137 0.578125,1.3169 0.96875,1.875 0.976625,0.1114 1.916,0.077 2.78125,-0.062 0.44625,-0.586 0.773875,-1.1988 0.96875,-1.8125 -0.4185,-0.9204 -0.889625,-1.7403 -1.53125,-2.4375 -0.362812,-0.028 -0.738109,-0.031 -1.09375,-0.031 z m -5.375,0.2812 c -0.2515,0.1117 -0.499,0.2354 -0.75,0.375 l 0,0.4688 c 0,1.1716 0.348625,2.2667 0.90625,3.1874 0.36275,-0.083 0.727625,-0.2074 1.0625,-0.375 -0.05612,-0.3622 -0.09037,-0.7788 -0.0625,-1.2812 -0.5855,-0.7256 -0.961,-1.5103 -1.15625,-2.375 z m 10.90625,0.094 c -0.19525,0.6693 -0.484375,1.3238 -0.875,1.9374 0.084,0.6138 0.08737,1.1998 0.03125,1.5626 0.195375,0.083 0.36425,0.1288 0.53125,0.1562 0.474625,-0.8642 0.75,-1.8456 0.75,-2.9062 0,-0.1953 -0.0039,-0.3986 -0.03125,-0.5938 -0.139625,-0.056 -0.2665,-0.1006 -0.40625,-0.1562 z m -0.96875,3.7812 c -0.362375,0.4746 -0.772375,0.8424 -1.21875,1.0938 -0.223625,0.502 -0.44625,0.9213 -0.78125,1.3124 1.03225,-0.5025 1.882875,-1.2705 2.46875,-2.2187 -0.139625,-0.056 -0.300875,-0.1313 -0.46875,-0.1875 z m -8.59375,0.062 c -0.3345,0.1674 -0.665,0.2915 -1,0.375 0.78075,1.1445 1.94525,1.9849 3.3125,2.375 -0.36275,-0.4464 -0.624,-0.9108 -0.875,-1.4687 -0.502375,-0.2788 -1.0465,-0.7794 -1.4375,-1.2813 z m 5.75,0.375 c -0.94825,0.168 -1.92625,0.146 -2.875,0.062 -0.362875,0.3624 -0.703625,0.6796 -1.09375,0.875 0.27875,0.6143 0.650875,1.0884 1.125,1.5625 0.335,0.056 0.69675,0.094 1.03125,0.094 0.69775,0 1.355,-0.1206 1.96875,-0.3437 0.474125,-0.4467 0.78375,-0.914 1.0625,-1.5 -0.390625,-0.1391 -0.80025,-0.415 -1.21875,-0.75 z m 19.65625,8.5937 -3.34375,0.5313 0,1.0937 1.6875,0 0,6.5938 1.65625,0 0,-8.2188 z m 2.71875,0.094 c -0.60816,0.062 -1.06122,0.2387 -1.375,0.4688 -0.44638,0.307 -0.6875,0.8025 -0.6875,1.5 l 0,1.0937 c 0,0.809 0.24462,1.3179 0.71875,1.625 0.47413,0.3066 1.36962,0.5 2.625,0.5 0.67,0 1.27925,-0.035 1.78125,-0.062 0.66988,-0.056 1.24412,-0.1353 1.71875,-0.2188 -0.2515,0.7808 -0.74662,1.2867 -1.5,1.5938 -0.75287,0.335 -1.9825,0.5 -3.65625,0.5 l -0.53125,0 1.09375,1.3125 0.25,0 0.3125,0 c 1.84188,0 3.30812,-0.4094 4.3125,-1.2187 1.03275,-0.8372 1.53125,-1.997 1.53125,-3.5313 l 0,-1.0625 c 0,-0.9483 -0.16837,-1.6376 -0.53125,-2 -0.39012,-0.3628 -1.05813,-0.5 -2.0625,-0.5 l -3.34375,0 c -0.23719,0 -0.45353,-0.02 -0.65625,0 z m 7.28125,0 -0.4375,4.5 c 0.67,-0.083 1.41938,-0.166 2.3125,-0.25 0.78125,-0.056 1.46675,-0.094 1.96875,-0.094 0.9765,0 1.63775,0.1168 2,0.3126 0.39113,0.1947 0.59375,0.5224 0.59375,0.9687 0,0.5025 -0.20262,0.836 -0.59375,1.0313 -0.4185,0.1951 -1.11725,0.2812 -2.09375,0.2812 -0.6695,0 -1.33,-0.01 -2,-0.094 -0.61375,-0.056 -1.32225,-0.1734 -2.1875,-0.3124 l 0.375,1.5624 c 0.47463,0.1116 1.01475,0.1947 1.65625,0.25 0.67,0.056 1.40588,0.094 2.1875,0.094 1.53425,0 2.6185,-0.2103 3.34375,-0.6562 0.67,-0.4185 1,-1.1172 1,-2.0938 0,-0.9204 -0.3,-1.6163 -0.96875,-2.0625 -0.6705,-0.4741 -1.65387,-0.6875 -2.9375,-0.6875 -0.44588,0 -0.90425,0.01 -1.40625,0.062 -0.61425,0.028 -1.25437,0.069 -1.8125,0.125 l 0.1875,-1.5625 5.53125,0 0.125,-1.375 -6.84375,0 z m 9.875,0 c -0.45088,0.042 -0.78031,0.1452 -0.96875,0.3125 -0.25125,0.2236 -0.375,0.6361 -0.375,1.25 l 0,0.75 c 0,0.4741 0.12,0.8116 0.34375,1.0625 0.2225,0.2233 0.63,0.3886 1.1875,0.5 -0.58625,0.084 -1.03,0.2524 -1.28125,0.5312 -0.27875,0.251 -0.40625,0.6228 -0.40625,1.125 l 0,0.8438 c 0,0.6973 0.1275,1.1552 0.40625,1.4062 0.28,0.2513 0.80125,0.3438 1.5,0.3438 l 5.0625,0 c 0.725,0 1.22125,-0.092 1.5,-0.3438 0.27875,-0.251 0.4375,-0.7367 0.4375,-1.4062 l 0,-0.8438 c 0,-0.5022 -0.15875,-0.874 -0.4375,-1.125 -0.27875,-0.2788 -0.695,-0.4472 -1.28125,-0.5312 0.53,-0.1114 0.96375,-0.2767 1.1875,-0.5 0.2225,-0.2509 0.34375,-0.5884 0.34375,-1.0625 l 0,-0.75 c 0,-0.6139 -0.12375,-1.0264 -0.375,-1.25 -0.25125,-0.2231 -0.74,-0.3125 -1.4375,-0.3125 l -4.9375,0 c -0.18125,0 -0.31846,-0.014 -0.46875,0 z m -16.09375,1.375 2.21875,0 c 0.69775,0 1.14838,0.087 1.34375,0.2812 0.22312,0.1953 0.28125,0.6907 0.28125,1.5 l 0,0.2188 0,0.1562 c -0.0284,0.056 -0.0312,0.066 -0.0312,0.094 -0.61325,0.084 -1.20213,0.1596 -1.84375,0.1875 -0.58588,0.028 -1.15425,0.062 -1.65625,0.062 -0.7255,0 -1.18312,-0.1104 -1.40625,-0.25 -0.251,-0.1391 -0.34375,-0.3906 -0.34375,-0.7812 l 0,-0.4688 c 0,-0.3906 0.11763,-0.6734 0.3125,-0.8125 0.19525,-0.1398 0.56687,-0.1875 1.125,-0.1875 z m 17.1875,0 3.71875,0 c 0.27875,0 0.4825,0.045 0.59375,0.1562 0.085,0.084 0.125,0.2554 0.125,0.5626 l 0,0.4374 c 0,0.279 -0.04,0.479 -0.125,0.5626 -0.11125,0.1118 -0.315,0.1562 -0.59375,0.1562 l -3.71875,0 c -0.30625,0 -0.51375,-0.044 -0.625,-0.1562 -0.11125,-0.084 -0.125,-0.2558 -0.125,-0.5626 l 0,-0.4374 c 0,-0.2795 0.0137,-0.4786 0.125,-0.5626 0.11125,-0.1112 0.31875,-0.1562 0.625,-0.1562 z m -0.15625,3.2188 4.03125,0 c 0.27875,0 0.4825,0.042 0.59375,0.125 0.085,0.1118 0.125,0.3178 0.125,0.625 l 0,0.5937 c 0,0.3066 -0.01,0.4786 -0.0937,0.5625 -0.11125,0.1114 -0.31875,0.1562 -0.625,0.1562 l -4.03125,0 c -0.30625,0 -0.54375,-0.045 -0.65625,-0.1562 -0.0838,-0.084 -0.0937,-0.2559 -0.0937,-0.5625 l 0,-0.5937 c 0,-0.3072 0.0137,-0.5132 0.125,-0.625 0.1125,-0.083 0.31875,-0.125 0.625,-0.125 z"
         transform="matrix(0.8,0,0,-0.8,0,842)"
         id="path4643"
         style="fill:white;fill-opacity:1;fill-rule:evenodd;stroke:none" /><path
         d="m 94.15625,829.875 c -6.101861,0.75397 -12.154073,1.80034 -18.09375,3.1875 l 117.96875,118 c 1.65655,-5.80815 2.94066,-11.6586 3.875,-17.4375 l -103.75,-103.75 z"
         transform="matrix(0.8,0,0,-0.8,0,842)"
         id="path4617"
         style="fill:#c9060c;fill-opacity:1;fill-rule:evenodd;stroke:none" /><path
         d="m 120.46875,828.28125 c -2.15302,0.003 -4.31151,0.0639 -6.46875,0.125 l 85.65625,85.6875 c 0.007,-0.5397 0.0312,-1.08874 0.0312,-1.625 l 0,-19.65625 L 135.625,828.75 c -5.01001,-0.31307 -10.07774,-0.47892 -15.15625,-0.46875 z"
         transform="matrix(0.8,0,0,-0.8,0,842)"
         id="path4619"
         style="fill:#c9060c;fill-opacity:1;fill-rule:evenodd;stroke:none" /><path
         d="m 160.0625,831.875 39.625,39.65625 0,-25.125 c -12.39472,-7.12654 -25.73148,-11.73938 -39.625,-14.53125 z"
         transform="matrix(0.8,0,0,-0.8,0,842)"
         id="path4621"
         style="fill:#c9060c;fill-opacity:1;fill-rule:evenodd;stroke:none" /></g></g></svg>