<?xml version="1.0" encoding="UTF-8"?>
<!DOCTYPE svg PUBLIC "-//W3C//DTD SVG 1.1//EN" "http://www.w3.org/Graphics/SVG/1.1/DTD/svg11.dtd">
<!-- Creator: CorelDRAW X8 -->
<svg xmlns="http://www.w3.org/2000/svg" xml:space="preserve" width="210.961mm" height="282.222mm" version="1.1" style="shape-rendering:geometricPrecision; text-rendering:geometricPrecision; image-rendering:optimizeQuality; fill-rule:evenodd; clip-rule:evenodd"
viewBox="0 0 7119 9524"
 xmlns:xlink="http://www.w3.org/1999/xlink">
 <defs>
  <style type="text/css">
   <![CDATA[
    .fil1 {fill:black}
    .fil4 {fill:#614D25}
    .fil5 {fill:#6D562A}
    .fil8 {fill:#856933}
    .fil7 {fill:#866A34}
    .fil6 {fill:#886B34}
    .fil2 {fill:#9CC8E6}
    .fil0 {fill:#E0B156}
    .fil3 {fill:#FEFEFE}
   ]]>
  </style>
 </defs>
 <g id="Camada_x0020_1">
  <metadata id="CorelCorpID_0Corel-Layer"/>
  <g id="_2567695010656">
   <path class="fil0" d="M4607 6714c-21,13 24,5 -35,12l-709 -5c-14,-54 -13,-256 -1,-315l186 -2 509 -2564 502 0c36,9 40,94 52,155l95 476c40,198 370,1892 390,1929 59,2 130,-10 183,11 9,52 5,108 5,160 0,58 7,109 -12,147l-734 0c-2,-3 -4,-7 -4,-9 -1,-2 -3,-6 -4,-9 -7,-28 0,10 -4,-21l1 -120c0,-48 -4,-99 4,-147 61,-27 184,-11 255,-11 -10,-70 -24,-137 -38,-207 -6,-32 -22,-187 -58,-197l-760 1 -77 412 253 0 1 304zm-2774 -314c71,0 195,-15 255,12 8,49 15,261 -7,306l-734 0c-16,-31 -12,-34 -12,-75 0,-28 0,-56 0,-84 0,-49 -3,-100 5,-147 53,-22 124,-10 183,-12 25,-47 112,-541 132,-637l355 -1778c10,-50 14,-136 50,-145l500 1 511 2563 186 5c12,56 13,258 -1,312l-709 5c-63,-7 -11,2 -35,-12l4 -304 252 0 -77 -413 -762 0c-34,20 -11,-19 -30,45l-66 358zm1922 -1574l345 2c18,56 18,654 3,731l-344 1c-2,181 -20,1456 15,1512 45,73 311,304 392,369l426 321c-42,55 -106,101 -157,161 -52,61 -105,151 -153,177 -45,-77 -119,-130 -180,-202 -30,-36 -56,-70 -89,-102 -126,-125 -362,-394 -504,-448 -130,-50 -247,1 -349,-31 -113,-36 -114,-147 -50,-231 55,-74 147,-100 207,-173 68,-82 47,-195 47,-318 0,-117 12,-2985 -2,-3017l-786 -618c-121,-92 -390,-261 -231,-376 107,-78 200,-3 264,45 57,43 140,98 210,136 156,84 322,151 519,182 577,92 1460,-320 2135,592 81,109 274,276 172,488 -79,165 -151,-94 -323,-290 -363,-413 -1082,-610 -1488,-237 -85,78 -70,53 -76,106 -5,47 0,129 0,180 0,257 15,854 -3,1040zm2366 -2440l-5123 0c17,355 1,754 1,1114l0 3382c1,670 268,1126 933,1317 316,91 638,77 946,185 447,156 616,406 682,444 56,-33 86,-90 137,-131 583,-477 939,-342 1481,-495 600,-170 940,-574 942,-1309l0 -3381c0,-363 -17,-768 1,-1126z"/>
   <path class="fil1" d="M6121 1090l-1 660 547 2 0 634 -546 0c-18,358 -1,763 -1,1126l0 3381c-2,735 -342,1139 -942,1309 -542,153 -898,18 -1481,495 -51,41 -81,98 -137,131 -66,-38 -235,-288 -682,-444 -308,-108 -630,-94 -946,-185 -665,-191 -932,-647 -933,-1317l0 -3382c0,-360 16,-759 -1,-1114l-546 0 3 -633 544 -4 -2 -659 -545 -4 0 -634 12 0 6238 0 -35 0 0 634 -546 4zm-6121 1755l548 0 0 4203c0,387 140,733 351,1017 51,67 106,112 163,170 97,98 288,215 414,277 249,123 517,179 806,218 219,29 352,27 559,131 86,43 146,75 219,127 179,128 410,476 500,536l318 -360c82,-88 43,-69 176,-169 138,-104 297,-177 470,-221 103,-27 186,-24 304,-41 395,-55 716,-132 1036,-345 137,-91 260,-204 357,-334 219,-292 350,-650 350,-1030l0 -4179 548 0 0 -2845 -7119 0 0 2845z"/>
   <polygon class="fil2" points="997,1090 6121,1090 6667,1086 6667,452 6702,452 464,452 452,452 452,1086 "/>
   <polygon class="fil2" points="998,2386 6121,2386 6667,2386 6667,1752 6120,1750 999,1749 455,1753 452,2386 "/>
   <path class="fil1" d="M3759 5560l339 -12 0 -709 -313 -1c-21,-4 -27,-11 -30,-12 18,-186 3,-783 3,-1040 0,-51 -5,-133 0,-180 6,-53 -9,-28 76,-106 406,-373 1125,-176 1488,237 172,196 244,455 323,290 102,-212 -91,-379 -172,-488 -675,-912 -1558,-500 -2135,-592 -197,-31 -363,-98 -519,-182 -70,-38 -153,-93 -210,-136 -64,-48 -157,-123 -264,-45 -159,115 110,284 231,376l786 618c14,32 2,2900 2,3017 0,123 21,236 -47,318 -60,73 -152,99 -207,173 -64,84 -63,195 50,231 102,32 219,-19 349,31 142,54 378,323 504,448 33,32 59,66 89,102 61,72 135,125 180,202 48,-26 101,-116 153,-177 51,-60 115,-106 157,-161l-426 -321c-81,-65 -347,-296 -392,-369 -35,-56 -17,-1331 -15,-1512z"/>
   <polygon class="fil3" points="999,1749 6120,1750 6121,1090 997,1090 "/>
   <path class="fil1" d="M4502 5629c19,-169 131,-705 176,-927 69,-337 4,-286 229,-286l231 1214 -636 -1zm-454 775c-22,13 22,5 -36,12 -8,1 -37,0 -48,0 -32,0 -64,0 -97,0l2 298 738 0 -1 -304 -253 0 77 -412 760 -1c36,10 52,165 58,197 14,70 28,137 38,207 -18,12 -8,13 -59,14 -19,0 -41,-1 -60,-1 -43,0 -86,0 -129,0l0 304 734 0 0 -304 -142 0c-56,-7 -12,3 -34,-14 -20,-37 -350,-1731 -390,-1929l-95 -476c-12,-61 -16,-146 -52,-155l-502 0 -509 2564z"/>
   <path class="fil1" d="M2211 4416c202,0 170,-32 203,146 53,292 177,840 203,1068l-637 0 231 -1214zm-688 1984c-22,17 22,7 -34,15l-142 -1 0 304 734 0 0 -304c-23,0 -234,7 -241,-9 -1,-3 -5,-3 -7,-5l66 -358c19,-64 -4,-25 30,-45l762 0 77 413 -252 0 -4 304 738 0 2 -298 -145 0c-57,-6 -15,1 -36,-12l-511 -2563 -500 -1c-36,9 -40,95 -50,145l-355 1778c-20,96 -107,590 -132,637z"/>
   <path class="fil0" d="M1980 5630l637 0c-26,-228 -150,-776 -203,-1068 -33,-178 -1,-146 -203,-146l-231 1214z"/>
   <path class="fil0" d="M4502 5629l636 1 -231 -1214c-225,0 -160,-51 -229,286 -45,222 -157,758 -176,927z"/>
   <path class="fil4" d="M3759 5560l344 -1c15,-77 15,-675 -3,-731l-345 -2c3,1 9,8 30,12l313 1 0 709 -339 12z"/>
   <path class="fil5" d="M4607 6714l-738 0 -2 -298c33,0 65,0 97,0 11,0 40,1 48,0 58,-7 14,1 36,-12l-186 2c-12,59 -13,261 1,315l709 5c59,-7 14,1 35,-12z"/>
   <path class="fil5" d="M2512 6714c24,14 -28,5 35,12l709 -5c14,-54 13,-256 1,-312l-186 -5c21,13 -21,6 36,12l145 0 -2 298 -738 0z"/>
   <path class="fil6" d="M2081 6718c22,-45 15,-257 7,-306 -60,-27 -184,-12 -255,-12 2,2 6,2 7,5 7,16 218,9 241,9l0 304z"/>
   <path class="fil7" d="M5038 6718l0 -304c43,0 86,0 129,0 19,0 41,1 60,1 51,-1 41,-2 59,-14 -71,0 -194,-16 -255,11 -8,48 -4,99 -4,147l-1 120c4,31 -3,-7 4,21 1,3 3,7 4,9 0,2 2,6 4,9z"/>
   <path class="fil7" d="M5772 6718c19,-38 12,-89 12,-147 0,-52 4,-108 -5,-160 -53,-21 -124,-9 -183,-11 22,17 -22,7 34,14l142 0 0 304z"/>
   <path class="fil8" d="M1347 6718l0 -304 142 1c56,-8 12,2 34,-15 -59,2 -130,-10 -183,12 -8,47 -5,98 -5,147 0,28 0,56 0,84 0,41 -4,44 12,75z"/>
  </g>
 </g>
</svg>
